<svg width="30" height="30" viewBox="0 0 30 30" fill="none" xmlns="http://www.w3.org/2000/svg">
<path d="M28.8529 22.4984C27.9323 21.7263 22.5331 18.3073 21.6357 18.4643C21.2144 18.5391 20.8921 18.8982 20.0295 19.9273C19.6305 20.4338 19.1924 20.9082 18.7192 21.3461C17.8521 21.1366 17.0128 20.8255 16.2186 20.4192C13.1043 18.903 10.5884 16.3863 9.07309 13.2715C8.66677 12.4774 8.35564 11.6381 8.14619 10.771C8.58407 10.2977 9.05846 9.85964 9.56498 9.4607C10.593 8.59805 10.9532 8.27785 11.028 7.85442C11.1849 6.95491 7.76279 1.55782 6.99388 0.637244C6.67157 0.255951 6.37876 0 6.00378 0C4.91678 0 0 6.07962 0 6.86749C0 6.93174 0.105329 13.261 8.09879 21.3935C16.2313 29.3869 22.5605 29.4923 22.6248 29.4923C23.4126 29.4923 29.4923 24.5755 29.4923 23.4885C29.4923 23.1135 29.2363 22.8207 28.8529 22.4984Z" fill="#1F2E41"/>
<path d="M22.1192 13.693H24.2258C24.2233 11.4589 23.3347 9.3171 21.755 7.7374C20.1753 6.15769 18.0335 5.26911 15.7994 5.2666V7.37319C17.475 7.37487 19.0815 8.04123 20.2663 9.22606C21.4512 10.4109 22.1175 12.0174 22.1192 13.693Z" fill="#1F2E41"/>
<path d="M27.3857 13.6928H29.4923C29.4881 10.0626 28.0441 6.58216 25.4771 4.01516C22.9101 1.44816 19.4297 0.00418156 15.7994 0V2.10659C18.8712 2.11021 21.8161 3.33207 23.9882 5.50413C26.1602 7.67619 27.3821 10.6211 27.3857 13.6928Z" fill="#1F2E41"/>
</svg>
