<svg width="30" height="30" viewBox="0 0 30 30" fill="none" xmlns="http://www.w3.org/2000/svg">
<path d="M11.39 4.01141C11.1848 4.55859 10.9974 5.14131 10.8284 5.754C12.0885 5.96563 13.3971 6.07671 14.7201 6.07671C16.0431 6.07671 17.3517 5.96563 18.6118 5.754C18.4427 5.14131 18.2554 4.55859 18.0503 4.01141C17.1082 1.49957 15.8633 0 14.7201 0C13.5769 0 12.3319 1.49957 11.39 4.01141Z" fill="#1F2E41"/>
<path d="M18.1223 0.396973C18.6957 1.19179 19.2166 2.19903 19.6686 3.40459C19.9033 4.03053 20.116 4.69871 20.3063 5.40151C21.857 5.01358 23.3006 4.46565 24.5647 3.7776C22.7613 2.15737 20.5578 0.974401 18.1223 0.396973Z" fill="#1F2E41"/>
<path d="M14.7201 7.80524C13.2471 7.80524 11.8061 7.68263 10.4241 7.44629C10.0218 9.40731 9.78705 11.5951 9.73975 13.882H19.7005C19.6532 11.5951 19.4185 9.40731 19.0162 7.44629C17.6341 7.68257 16.1932 7.80524 14.7201 7.80524Z" fill="#1F2E41"/>
<path d="M8.01089 15.6106H0C0.195722 18.9796 1.52717 22.0486 3.61691 24.4393C5.12979 23.5518 6.86093 22.8646 8.73316 22.3991C8.30674 20.3208 8.05888 18.013 8.01089 15.6106Z" fill="#1F2E41"/>
<path d="M21.4294 15.6104C21.3814 18.0129 21.1334 20.3206 20.707 22.3989C22.5793 22.8644 24.3105 23.5516 25.8233 24.4391C27.913 22.0484 29.2445 18.9794 29.4402 15.6104L21.4294 15.6104Z" fill="#1F2E41"/>
<path d="M8.01083 13.8819C8.05882 11.4794 8.30674 9.17168 8.73316 7.09347C6.86087 6.62793 5.12973 5.94074 3.61691 5.05322C1.52717 7.44395 0.195722 10.5129 0 13.882L8.01083 13.8819Z" fill="#1F2E41"/>
<path d="M18.0503 25.4808C18.2554 24.9337 18.4428 24.3509 18.6118 23.7382C17.3517 23.5266 16.0431 23.4155 14.7201 23.4155C13.3971 23.4155 12.0885 23.5266 10.8284 23.7382C10.9975 24.3509 11.1848 24.9337 11.39 25.4808C12.3319 27.9926 13.5768 29.4922 14.72 29.4922C15.8633 29.4922 17.1083 27.9927 18.0503 25.4808Z" fill="#1F2E41"/>
<path d="M14.7201 21.6871C16.1932 21.6871 17.6341 21.8097 19.0162 22.046C19.4184 20.085 19.6532 17.8972 19.7005 15.6104H9.73975C9.78705 17.8972 10.0218 20.085 10.4241 22.046C11.8061 21.8097 13.2471 21.6871 14.7201 21.6871Z" fill="#1F2E41"/>
<path d="M20.707 7.09352C21.1334 9.17174 21.3813 11.4795 21.4294 13.882H29.4402C29.2445 10.5129 27.9131 7.44395 25.8233 5.05322C24.3104 5.9408 22.5793 6.62799 20.707 7.09352Z" fill="#1F2E41"/>
<path d="M20.3063 24.0908C20.116 24.7936 19.9033 25.4618 19.6686 26.0877C19.2165 27.2933 18.6957 28.3005 18.1223 29.0954C20.5578 28.518 22.7613 27.335 24.5647 25.7147C23.3006 25.0267 21.857 24.4787 20.3063 24.0908Z" fill="#1F2E41"/>
<path d="M9.13389 5.40151C9.3242 4.69871 9.53686 4.03053 9.77159 3.40459C10.2237 2.19903 10.7445 1.19179 11.3179 0.396973C8.8824 0.974401 6.67893 2.15737 4.87549 3.77765C6.13959 4.46565 7.58321 5.01358 9.13389 5.40151Z" fill="#1F2E41"/>
<path d="M9.77159 26.0877C9.53686 25.4618 9.3242 24.7936 9.13389 24.0908C7.58321 24.4787 6.13959 25.0267 4.87549 25.7147C6.67893 27.335 8.8824 28.518 11.3179 29.0954C10.7446 28.3005 10.2237 27.2933 9.77159 26.0877Z" fill="#1F2E41"/>
</svg>
