<svg width="22" height="23" viewBox="0 0 22 23" fill="none" xmlns="http://www.w3.org/2000/svg">
<path d="M6.88107 10.5918L4.11778 7.82854H13.2765C13.9401 7.82854 14.4831 7.28554 14.4831 6.62187C14.4831 5.95819 13.9401 5.41519 13.2765 5.41519H4.11778L6.88107 2.6519C7.35167 2.1813 7.35167 1.42109 6.88107 0.950487C6.41047 0.479883 5.65026 0.479883 5.17966 0.950487L0.352953 5.77719C-0.117651 6.23573 -0.117651 7.008 0.352953 7.49067L5.17966 12.3174C5.65026 12.788 6.41047 12.788 6.88107 12.3174C7.35167 11.8468 7.35167 11.0866 6.88107 10.616V10.5918Z" fill="#293242"/>
<path d="M21.3619 15.4181L16.5352 10.5914C16.0646 10.1208 15.3044 10.1208 14.8338 10.5914C14.3632 11.062 14.3632 11.8222 14.8338 12.2928L17.5971 15.0561H8.43839C7.77472 15.0561 7.23172 15.5991 7.23172 16.2627C7.23172 16.9264 7.77472 17.4694 8.43839 17.4694H17.5971L14.8338 20.2327C14.3632 20.7033 14.3632 21.4635 14.8338 21.9341C15.3044 22.4047 16.0646 22.4047 16.5352 21.9341L21.3619 17.1074C21.8325 16.6368 21.8325 15.8766 21.3619 15.3939V15.4181Z" fill="#293242"/>
</svg>
