<svg width="67" height="58" viewBox="0 0 67 58" fill="none" xmlns="http://www.w3.org/2000/svg">
<path d="M53.3175 30.2779C50.7103 30.2779 48.1616 31.0633 45.9937 32.5347C43.8259 34.0061 42.1363 36.0974 41.1385 38.5443C40.1408 40.9912 39.8797 43.6836 40.3883 46.2812C40.897 48.8787 42.1525 51.2647 43.9961 53.1375C45.8397 55.0102 48.1886 56.2856 50.7458 56.8023C53.3029 57.319 55.9535 57.0538 58.3622 56.0402C60.771 55.0267 62.8298 53.3104 64.2784 51.1083C65.7269 48.9062 66.5 46.3172 66.5 43.6687C66.5 40.1173 65.1111 36.7113 62.6389 34.2C60.1667 31.6887 56.8137 30.2779 53.3175 30.2779ZM57.437 45.3426H54.9653V47.8534C54.9653 48.2973 54.7917 48.7231 54.4827 49.037C54.1737 49.3509 53.7546 49.5272 53.3175 49.5272C52.8805 49.5272 52.4614 49.3509 52.1523 49.037C51.8433 48.7231 51.6697 48.2973 51.6697 47.8534V45.3426H49.198C48.761 45.3426 48.3419 45.1662 48.0328 44.8523C47.7238 44.5384 47.5502 44.1127 47.5502 43.6687C47.5502 43.2248 47.7238 42.7991 48.0328 42.4851C48.3419 42.1712 48.761 41.9949 49.198 41.9949H51.6697V39.4841C51.6697 39.0402 51.8433 38.6144 52.1523 38.3005C52.4614 37.9866 52.8805 37.8103 53.3175 37.8103C53.7546 37.8103 54.1737 37.9866 54.4827 38.3005C54.7917 38.6144 54.9653 39.0402 54.9653 39.4841V41.9949H57.437C57.8741 41.9949 58.2932 42.1712 58.6022 42.4851C58.9113 42.7991 59.0849 43.2248 59.0849 43.6687C59.0849 44.1127 58.9113 44.5384 58.6022 44.8523C58.2932 45.1662 57.8741 45.3426 57.437 45.3426ZM0.587625 19.3979V36.9733C0.396012 38.3375 0.51965 39.7283 0.948751 41.0356C1.37785 42.3429 2.10064 43.5307 3.05988 44.5051C4.01913 45.4795 5.1885 46.2137 6.47543 46.6496C7.76236 47.0855 9.1315 47.2111 10.4745 47.0164H34.3018C34.5722 47.0147 34.8311 46.9048 35.0223 46.7105C35.2135 46.5163 35.3217 46.2534 35.3234 45.9787C35.2303 45.2124 35.1862 44.4408 35.1916 43.6687C35.2003 38.7882 37.1128 34.1101 40.5102 30.659C43.9076 27.2079 48.5129 25.2652 53.3175 25.2564C55.0701 25.2538 56.8135 25.5132 58.4916 26.0263C58.6203 26.0649 58.7531 26.0874 58.8871 26.0933C59.0197 26.0978 59.1518 26.0751 59.2756 26.0267C59.3994 25.9782 59.5123 25.905 59.6076 25.8112C59.703 25.7175 59.7787 25.6053 59.8305 25.4812C59.8822 25.3571 59.9088 25.2237 59.9088 25.089V19.3979H0.587625ZM23.657 36.1364H13.7701C13.1146 36.1364 12.4859 35.8719 12.0223 35.401C11.5588 34.9302 11.2984 34.2915 11.2984 33.6256C11.2984 32.9597 11.5588 32.3211 12.0223 31.8502C12.4859 31.3794 13.1146 31.1149 13.7701 31.1149H23.657C24.3125 31.1149 24.9412 31.3794 25.4047 31.8502C25.8683 32.3211 26.1287 32.9597 26.1287 33.6256C26.1287 34.2915 25.8683 34.9302 25.4047 35.401C24.9412 35.8719 24.3125 36.1364 23.657 36.1364ZM50.0219 0.14858H10.4745C9.1315 -0.0460613 7.76236 0.079531 6.47543 0.515414C5.1885 0.951297 4.01913 1.6855 3.05988 2.65991C2.10064 3.63432 1.37785 4.82217 0.948751 6.12944C0.51965 7.43671 0.396012 8.82749 0.587625 10.1917V14.3763H59.9088V10.1917C60.1004 8.82749 59.9767 7.43671 59.5476 6.12944C59.1185 4.82217 58.3958 3.63432 57.4365 2.65991C56.4773 1.6855 55.3079 0.951297 54.021 0.515414C52.734 0.079531 51.3649 -0.0460613 50.0219 0.14858Z" fill="#E74529"/>
</svg>
