<svg width="47" height="61" viewBox="0 0 47 61" fill="none" xmlns="http://www.w3.org/2000/svg">
<path d="M40.8817 0.119385H6.11865C3.21088 0.119385 0.845215 2.48505 0.845215 5.39282V54.8459C0.845215 57.7537 3.21088 60.1194 6.11865 60.1194H40.8817C43.7895 60.1194 46.1552 57.7537 46.1552 54.8459V5.39282C46.1552 2.48505 43.7894 0.119385 40.8817 0.119385ZM8.00455 10.4729C8.00455 9.69946 8.63736 9.06665 9.4108 9.06665H38.06C38.8334 9.06665 39.4662 9.69946 39.4662 10.4729V15.8341C39.4664 16.6075 38.8335 17.2404 38.0601 17.2404H9.4108C8.63736 17.2404 8.00455 16.6075 8.00455 15.8341V10.4729ZM25.144 29.6969H21.8566C20.8857 29.6969 20.0988 28.9099 20.0988 27.9391V25.5505C20.0988 24.5797 20.8858 23.7927 21.8566 23.7927H25.144C26.1148 23.7927 26.9019 24.5797 26.9019 25.5505V27.9391C26.9019 28.9099 26.1148 29.6969 25.144 29.6969ZM26.9019 36.8734V39.262C26.9019 40.2328 26.1148 41.0198 25.144 41.0198H21.8566C20.8858 41.0198 20.0988 40.2328 20.0988 39.262V36.8734C20.0988 35.9025 20.8857 35.1156 21.8566 35.1156H25.144C26.1148 35.1156 26.9019 35.9026 26.9019 36.8734ZM14.337 50.5849C14.337 51.5557 13.55 52.3427 12.5792 52.3427H9.29174C8.32096 52.3427 7.53393 51.5557 7.53393 50.5849V48.1963C7.53393 47.2255 8.32096 46.4384 9.29174 46.4384H12.5792C13.55 46.4384 14.337 47.2254 14.337 48.1963V50.5849ZM14.337 39.262C14.337 40.2328 13.55 41.0198 12.5792 41.0198H9.29174C8.32096 41.0198 7.53393 40.2328 7.53393 39.262V36.8734C7.53393 35.9026 8.32096 35.1156 9.29174 35.1156H12.5792C13.55 35.1156 14.337 35.9026 14.337 36.8734V39.262ZM14.337 27.9391C14.337 28.9099 13.55 29.6969 12.5792 29.6969H9.29174C8.32096 29.6969 7.53393 28.9099 7.53393 27.9391V25.5505C7.53393 24.5797 8.32096 23.7927 9.29174 23.7927H12.5792C13.55 23.7927 14.337 24.5797 14.337 25.5505V27.9391ZM39.4663 50.5849C39.4663 51.5557 38.6793 52.3427 37.7085 52.3427H21.8565C20.8857 52.3427 20.0987 51.5557 20.0987 50.5849V48.1963C20.0987 47.2254 20.8856 46.4384 21.8565 46.4384H37.7085C38.6793 46.4384 39.4663 47.2255 39.4663 48.1963V50.5849ZM39.4663 39.262C39.4663 40.2328 38.6793 41.0198 37.7085 41.0198H34.4211C33.4503 41.0198 32.6633 40.2328 32.6633 39.262V36.8734C32.6633 35.9026 33.4503 35.1156 34.4211 35.1156H37.7085C38.6793 35.1156 39.4663 35.9026 39.4663 36.8734V39.262ZM39.4663 27.9391C39.4663 28.9099 38.6793 29.6969 37.7085 29.6969H34.4211C33.4503 29.6969 32.6633 28.9099 32.6633 27.9391V25.5505C32.6633 24.5797 33.4503 23.7927 34.4211 23.7927H37.7085C38.6793 23.7927 39.4663 24.5797 39.4663 25.5505V27.9391Z" fill="#E74529"/>
</svg>
