<svg width="49" height="61" viewBox="0 0 49 61" fill="none" xmlns="http://www.w3.org/2000/svg">
<path d="M48.2857 22.5596C48.1063 22.1706 47.8205 21.8417 47.4623 21.612C47.1041 21.3822 46.6884 21.2612 46.2643 21.2631H46.2538L27.014 21.3703L26.8976 21.2417L29.5434 2.64171C29.6141 2.1515 29.5227 1.65138 29.2834 1.21923C29.0441 0.787078 28.6704 0.447165 28.2205 0.252427C27.9366 0.127258 27.6306 0.0616509 27.3209 0.0595703C26.9891 0.0605739 26.6617 0.137177 26.3631 0.283701C26.0645 0.430226 25.8023 0.642913 25.5959 0.905999L0.990686 31.9774C0.727803 32.3086 0.562783 32.7083 0.514672 33.1304C0.466562 33.5525 0.537321 33.9798 0.718784 34.3629C0.900247 34.746 1.18502 35.0693 1.54023 35.2956C1.89544 35.5219 2.30661 35.6419 2.72628 35.6417H20.0717L20.1775 35.781L15.7327 57.3381C15.63 57.8313 15.6934 58.3451 15.9127 58.7975C16.132 59.2499 16.4947 59.615 16.9428 59.8345C17.391 60.0539 17.8988 60.1151 18.3853 60.0083C18.8718 59.9016 19.309 59.6329 19.6272 59.2453L47.9788 24.9703C48.2528 24.6405 48.4274 24.2379 48.4818 23.8105C48.5362 23.3831 48.4681 22.9489 48.2857 22.5596Z" fill="#E74529"/>
</svg>
