<svg width="69" height="47" viewBox="0 0 69 47" fill="none" xmlns="http://www.w3.org/2000/svg">
<path d="M68.5 11.208V7.62207C68.5 3.51445 65.1701 0.18457 61.0625 0.18457H7.9375C3.82987 0.18457 0.5 3.51445 0.5 7.62207V11.208C0.5 11.5747 0.797367 11.8721 1.16406 11.8721H67.8359C68.2026 11.8721 68.5 11.5747 68.5 11.208Z" fill="#E74529"/>
<path d="M0.5 16.7861V39.4971C0.5 43.6047 3.82987 46.9346 7.9375 46.9346H61.0625C65.1701 46.9346 68.5 43.6047 68.5 39.4971V16.7861C68.5 16.4194 68.2026 16.1221 67.8359 16.1221H1.16406C0.797367 16.1221 0.5 16.4194 0.5 16.7861ZM17.5 34.1846C17.5 35.3581 16.5485 36.3096 15.375 36.3096H13.25C12.0765 36.3096 11.125 35.3581 11.125 34.1846V32.0596C11.125 30.886 12.0765 29.9346 13.25 29.9346H15.375C16.5485 29.9346 17.5 30.886 17.5 32.0596V34.1846Z" fill="#E74529"/>
</svg>
