<svg width="69" height="69" viewBox="0 0 69 69" fill="none" xmlns="http://www.w3.org/2000/svg">
<path d="M26.8079 9.26533C26.334 10.5292 25.9012 11.8751 25.5107 13.2903C28.4213 13.7791 31.4438 14.0357 34.4997 14.0357C37.5556 14.0357 40.578 13.7791 43.4886 13.2903C43.098 11.8751 42.6654 10.5292 42.1915 9.26533C40.0156 3.46364 37.1402 0 34.4997 0C31.8591 0 28.9836 3.46364 26.8079 9.26533Z" fill="#E74529"/>
<path d="M42.3574 0.916504C43.6818 2.75232 44.8848 5.0788 45.929 7.86334C46.4711 9.3091 46.9623 10.8524 47.4019 12.4757C50.9836 11.5797 54.318 10.3141 57.2377 8.72489C53.0722 4.98259 47.9828 2.25022 42.3574 0.916504Z" fill="#E74529"/>
<path d="M34.5005 18.0278C31.0982 18.0278 27.7699 17.7446 24.5778 17.1987C23.6486 21.7282 23.1063 26.7815 22.9971 32.0635H46.004C45.8947 26.7815 45.3525 21.7282 44.4233 17.1987C41.2311 17.7445 37.9028 18.0278 34.5005 18.0278Z" fill="#E74529"/>
<path d="M19.0031 36.0564H0.5C0.952068 43.838 4.02738 50.9266 8.85414 56.4486C12.3485 54.3985 16.347 52.8114 20.6714 51.7361C19.6865 46.9358 19.114 41.6054 19.0031 36.0564Z" fill="#E74529"/>
<path d="M49.9965 36.0563C49.8857 41.6054 49.313 46.9357 48.3281 51.7359C52.6526 52.8111 56.6511 54.3984 60.1454 56.4483C64.9721 50.9263 68.0474 43.8378 68.4995 36.0562L49.9965 36.0563Z" fill="#E74529"/>
<path d="M19.003 32.0637C19.1138 26.5146 19.6865 21.1842 20.6714 16.3841C16.3469 15.3088 12.3484 13.7216 8.85414 11.6716C4.02738 17.1936 0.952068 24.2822 0.5 32.0638L19.003 32.0637Z" fill="#E74529"/>
<path d="M42.1915 58.8541C42.6654 57.5902 43.0981 56.2443 43.4886 54.8291C40.578 54.3403 37.5556 54.0837 34.4997 54.0837C31.4438 54.0837 28.4213 54.3403 25.5107 54.8291C25.9013 56.2443 26.334 57.5902 26.8079 58.8541C28.9836 64.6556 31.859 68.1194 34.4995 68.1194C37.1401 68.1194 40.0158 64.6558 42.1915 58.8541Z" fill="#E74529"/>
<path d="M34.5005 50.0918C37.9028 50.0918 41.2311 50.375 44.4233 50.9209C45.3524 46.3914 45.8947 41.3382 46.004 36.0562H22.9971C23.1063 41.3382 23.6485 46.3914 24.5778 50.9209C27.7698 50.3751 31.0981 50.0918 34.5005 50.0918Z" fill="#E74529"/>
<path d="M48.3281 16.384C49.313 21.1841 49.8855 26.5146 49.9965 32.0636H68.4996C68.0476 24.2819 64.9723 17.1934 60.1455 11.6714C56.651 13.7215 52.6525 15.3087 48.3281 16.384Z" fill="#E74529"/>
<path d="M47.4019 55.6438C46.9623 57.2671 46.4711 58.8104 45.929 60.2562C44.8847 63.0407 43.6818 65.3672 42.3574 67.203C47.9828 65.8694 53.0724 63.1371 57.2377 59.3946C54.318 57.8054 50.9836 56.5398 47.4019 55.6438Z" fill="#E74529"/>
<path d="M21.5976 12.476C22.0371 10.8527 22.5283 9.30935 23.0705 7.86358C24.1147 5.07905 25.3176 2.75257 26.642 0.916748C21.0167 2.25046 15.9272 4.98283 11.7617 8.72527C14.6815 10.3144 18.0159 11.5799 21.5976 12.476Z" fill="#E74529"/>
<path d="M23.0705 60.2562C22.5283 58.8104 22.0371 57.2671 21.5976 55.6438C18.0159 56.5398 14.6815 57.8054 11.7617 59.3946C15.9272 63.1371 21.0167 65.8694 26.642 67.203C25.3178 65.3672 24.1147 63.0407 23.0705 60.2562Z" fill="#E74529"/>
</svg>
