<svg width="61" height="61" viewBox="0 0 61 61" fill="none" xmlns="http://www.w3.org/2000/svg">
<path d="M59.1988 45.7934C57.3259 44.2227 46.3417 37.267 44.5159 37.5863C43.6588 37.7384 43.0031 38.4691 41.2481 40.5627C40.4365 41.5932 39.5452 42.5583 38.5824 43.4491C36.8183 43.023 35.1108 42.39 33.4952 41.5634C27.1594 38.4787 22.0409 33.3587 18.9581 27.022C18.1314 25.4064 17.4985 23.6989 17.0724 21.9348C17.9632 20.972 18.9283 20.0807 19.9588 19.2691C22.0502 17.5141 22.7831 16.8627 22.9352 16.0013C23.2545 14.1713 16.2924 3.19126 14.7281 1.3184C14.0724 0.542687 13.4767 0.0219727 12.7138 0.0219727C10.5024 0.0219727 0.499512 12.3905 0.499512 13.9934C0.499512 14.1241 0.713797 27.0005 16.9759 43.5455C33.5209 59.8077 46.3974 60.022 46.5281 60.022C48.1309 60.022 60.4995 50.0191 60.4995 47.8077C60.4995 47.0448 59.9788 46.4491 59.1988 45.7934Z" fill="#E74529"/>
<path d="M45.5002 27.8792H49.7859C49.7808 23.3342 47.9731 18.9768 44.7593 15.763C41.5455 12.5492 37.1881 10.7414 32.6431 10.7363V15.022C36.0519 15.0254 39.3202 16.3811 41.7307 18.7916C44.1411 21.202 45.4968 24.4703 45.5002 27.8792Z" fill="#E74529"/>
<path d="M56.2145 27.8791H60.5002C60.4917 20.4936 57.554 13.4129 52.3316 8.19054C47.1093 2.96815 40.0286 0.0304797 32.6431 0.0219727V4.30769C38.8923 4.31506 44.8835 6.80084 49.3024 11.2197C53.7213 15.6386 56.2071 21.6299 56.2145 27.8791Z" fill="#E74529"/>
</svg>
