<svg width="69" height="69" viewBox="0 0 69 69" fill="none" xmlns="http://www.w3.org/2000/svg">
<path d="M22.0488 31.3957L13.3953 22.7421H42.0767C44.1551 22.7421 45.8555 21.0416 45.8555 18.9633C45.8555 16.8849 44.1551 15.1844 42.0767 15.1844H13.3953L22.0488 6.53089C23.5226 5.05714 23.5226 2.67647 22.0488 1.20272C20.5751 -0.271025 18.1944 -0.271025 16.7207 1.20272L1.60531 16.3181C0.131563 17.754 0.131563 20.1725 1.60531 21.684L16.7207 36.7994C18.1944 38.2732 20.5751 38.2732 22.0488 36.7994C23.5226 35.3257 23.5226 32.945 22.0488 31.4712V31.3957Z" fill="#E74529"/>
<path d="M67.3947 46.511L52.2794 31.3956C50.8056 29.9218 48.425 29.9218 46.9512 31.3956C45.4775 32.8693 45.4775 35.25 46.9512 36.7238L55.6048 45.3773H26.9234C24.845 45.3773 23.1445 47.0778 23.1445 49.1561C23.1445 51.2345 24.845 52.935 26.9234 52.935H55.6048L46.9512 61.5885C45.4775 63.0623 45.4775 65.443 46.9512 66.9167C48.425 68.3904 50.8056 68.3904 52.2794 66.9167L67.3947 51.8013C68.8685 50.3276 68.8685 47.9469 67.3947 46.4354V46.511Z" fill="#E74529"/>
</svg>
