<svg width="67" height="61" viewBox="0 0 67 61" fill="none" xmlns="http://www.w3.org/2000/svg">
<path d="M67 6.93457V27.506C66.991 29.0945 66.3546 30.6154 65.2289 31.7387C64.1032 32.862 62.5791 33.497 60.9872 33.506H58.4103V17.2203C58.4103 15.1743 57.5958 13.2122 56.146 11.7655C54.6962 10.3188 52.7298 9.506 50.6795 9.506H16.3205C14.2702 9.506 12.3038 10.3188 10.854 11.7655C9.40423 13.2122 8.58974 15.1743 8.58974 17.2203V33.506H6.01282C4.4209 33.497 2.89675 32.862 1.77108 31.7387C0.645407 30.6154 0.00901958 29.0945 0 27.506V6.93457C0.00901958 5.34605 0.645407 3.82515 1.77108 2.70187C2.89675 1.5786 4.4209 0.943571 6.01282 0.93457H60.9872C62.5791 0.943571 64.1032 1.5786 65.2289 2.70187C66.3546 3.82515 66.991 5.34605 67 6.93457ZM53.2564 17.2203V54.9346C53.2474 56.5231 52.611 58.044 51.4853 59.1673C50.3597 60.2905 48.8355 60.9256 47.2436 60.9346H19.7564C18.1645 60.9256 16.6403 60.2905 15.5147 59.1673C14.389 58.044 13.7526 56.5231 13.7436 54.9346V17.2203C13.7525 16.5411 14.0268 15.8922 14.5082 15.4118C14.9895 14.9315 15.6398 14.6577 16.3205 14.6489H50.6795C51.3602 14.6577 52.0105 14.9315 52.4918 15.4118C52.9732 15.8922 53.2475 16.5411 53.2564 17.2203ZM40.3718 41.7003C40.3681 40.4546 39.9804 39.2402 39.2612 38.222C38.542 37.2038 37.5262 36.4311 36.3518 36.0089L32.641 34.706C32.469 34.648 32.3198 34.5372 32.2149 34.3894C32.1099 34.2415 32.0546 34.0643 32.0569 33.8831C32.0658 33.6527 32.1638 33.4347 32.3304 33.2749C32.497 33.115 32.7192 33.0258 32.9503 33.026H33.5C34.4421 33.0204 35.3681 33.2692 36.18 33.746C36.4688 33.9574 36.7987 34.1064 37.1485 34.1835C37.4982 34.2606 37.8603 34.264 38.2115 34.1936C38.5627 34.1233 38.8953 33.9806 39.1882 33.7747C39.481 33.5689 39.7276 33.3044 39.9123 32.9981C40.097 32.6918 40.2156 32.3504 40.2606 31.9958C40.3056 31.6412 40.2761 31.2811 40.1738 30.9385C40.0716 30.596 39.8989 30.2784 39.6667 30.0062C39.4346 29.7339 39.1481 29.513 38.8256 29.3574C37.9334 28.8151 36.9586 28.4213 35.9395 28.1917V27.506C35.9395 26.824 35.668 26.17 35.1847 25.6877C34.7015 25.2055 34.046 24.9346 33.3626 24.9346C32.6791 24.9346 32.0237 25.2055 31.5404 25.6877C31.0571 26.17 30.7856 26.824 30.7856 27.506V28.226C29.5798 28.6052 28.5266 29.3582 27.779 30.3755C27.0313 31.3929 26.6282 32.6216 26.6282 33.8831C26.6319 35.1288 27.0196 36.3432 27.7388 37.3614C28.458 38.3796 29.4738 39.1523 30.6482 39.5746L34.359 40.8774C34.531 40.9354 34.6802 41.0462 34.7851 41.1941C34.8901 41.3419 34.9454 41.5191 34.9431 41.7003C34.9342 41.9307 34.8362 42.1487 34.6696 42.3086C34.503 42.4684 34.2808 42.5576 34.0497 42.5574H33.5C32.5579 42.563 31.6319 42.3142 30.82 41.8374C30.5312 41.626 30.2013 41.477 29.8515 41.3999C29.5017 41.3229 29.1397 41.3194 28.7885 41.3898C28.4373 41.4602 28.1047 41.6028 27.8118 41.8087C27.519 42.0145 27.2724 42.2791 27.0877 42.5854C26.903 42.8917 26.7844 43.233 26.7394 43.5876C26.6944 43.9422 26.7239 44.3023 26.8262 44.6449C26.9284 44.9875 27.1011 45.305 27.3333 45.5772C27.5654 45.8495 27.8518 46.0704 28.1744 46.226C29.0666 46.7684 30.0414 47.1621 31.0605 47.3917V48.0774C31.0605 48.7594 31.332 49.4135 31.8153 49.8957C32.2985 50.3779 32.954 50.6489 33.6374 50.6489C34.3209 50.6489 34.9763 50.3779 35.4596 49.8957C35.9429 49.4135 36.2144 48.7594 36.2144 48.0774V47.3574C37.4202 46.9782 38.4734 46.2253 39.221 45.2079C39.9687 44.1906 40.3718 42.9619 40.3718 41.7003Z" fill="#E74529"/>
</svg>
