<svg width="37" height="28" viewBox="0 0 37 28" fill="none" xmlns="http://www.w3.org/2000/svg">
<path fill-rule="evenodd" clip-rule="evenodd" d="M2.97162 1.61015L14.0915 12.4865C16.5167 14.8531 20.4812 14.8551 22.9085 12.4865L34.0283 1.61015C34.1403 1.50067 34.124 1.32037 33.9941 1.23179C32.8599 0.458461 31.48 0 29.9935 0H7.0065C5.51997 0 4.14003 0.45854 3.00586 1.23179C2.87595 1.32037 2.85963 1.50067 2.97162 1.61015ZM0 6.85004C0 5.70722 0.289814 4.62745 0.800304 3.67838C0.880133 3.52991 1.08248 3.49988 1.20379 3.61849L12.1829 14.3525C15.6596 17.7566 21.3383 17.7585 24.8171 14.3525L35.7962 3.61849C35.9175 3.49988 36.1199 3.52991 36.1997 3.67838C36.7101 4.62745 37 5.7073 37 6.85004V21.1499C37 24.9299 33.855 28 29.9935 28H7.0065C3.1451 28 0 24.9299 0 21.1499V6.85004Z" fill="#EB644C"/>
</svg>
