<svg width="38" height="39" viewBox="0 0 38 39" fill="none" xmlns="http://www.w3.org/2000/svg">
<path d="M38 19.4616C38 21.8148 36.0924 23.7224 33.7392 23.7224H23.798V34.1636C23.798 36.8347 21.6327 39 18.9616 39C16.2906 39 14.1253 36.8347 14.1253 34.1636V23.7224H4.26083C1.90764 23.7224 0 21.8148 0 19.4616C0 17.1084 1.90764 15.2008 4.26083 15.2008H14.1253V4.83637C14.1253 2.16532 16.2906 0 18.9616 0C21.6327 0 23.798 2.16531 23.798 4.83636V15.2008H33.7392C36.0924 15.2008 38 17.1084 38 19.4616Z" fill="#C0C5CE"/>
</svg>
