<svg width="57" height="97" viewBox="0 0 57 97" fill="none" xmlns="http://www.w3.org/2000/svg">
<g clip-path="url(#clip0_5285_1347)">
<path d="M52.8932 0.898552V41.63C52.8932 41.8743 52.7887 42.1011 52.6234 42.2756L45.7932 48.9231C45.6278 49.0889 45.4103 49.1761 45.1754 49.1761H29.2526C28.7567 49.1761 28.3564 48.7748 28.3564 48.2775V41.7696L21.4131 48.7225C21.1781 48.958 20.804 48.958 20.5691 48.7225L4.26347 32.374C4.02855 32.1385 4.02855 31.7634 4.26347 31.5278L20.5778 15.1794C20.8127 14.9439 21.1868 14.9439 21.4218 15.1794L28.3651 22.1323V7.8427C28.3651 7.60716 28.4521 7.38034 28.6262 7.21459L35.4564 0.270438C35.6217 0.0959619 35.8567 0 36.0916 0H51.9969C52.4929 0 52.8932 0.401295 52.8932 0.898552Z" fill="white"/>
<path d="M52.8932 0.898552V41.63C52.8932 41.8743 52.7887 42.1011 52.6234 42.2756L45.7932 48.9231C45.6278 49.0889 45.4103 49.1761 45.1754 49.1761H29.2526C28.7567 49.1761 28.3564 48.7748 28.3564 48.2775V41.7696L21.4131 48.7225C21.1781 48.958 20.804 48.958 20.5691 48.7225L4.26347 32.374C4.02855 32.1385 4.02855 31.7634 4.26347 31.5278L20.5778 15.1794C20.8127 14.9439 21.1868 14.9439 21.4218 15.1794L28.3651 22.1323V7.8427C28.3651 7.60716 28.4521 7.38034 28.6262 7.21459L35.4564 0.270438C35.6217 0.0959619 35.8567 0 36.0916 0H51.9969C52.4929 0 52.8932 0.401295 52.8932 0.898552Z" fill="white"/>
<path d="M52.8932 0.898552V41.63C52.8932 41.8743 52.7887 42.1011 52.6234 42.2756L45.7932 48.9231C45.6278 49.0889 45.4103 49.1761 45.1754 49.1761H29.2526C28.7567 49.1761 28.3564 48.7748 28.3564 48.2775V41.7696L21.4131 48.7225C21.1781 48.958 20.804 48.958 20.5691 48.7225L4.26347 32.374C4.02855 32.1385 4.02855 31.7634 4.26347 31.5278L20.5778 15.1794C20.8127 14.9439 21.1868 14.9439 21.4218 15.1794L28.3651 22.1323V7.8427C28.3651 7.60716 28.4521 7.38034 28.6262 7.21459L35.4564 0.270438C35.6217 0.0959619 35.8567 0 36.0916 0H51.9969C52.4929 0 52.8932 0.401295 52.8932 0.898552Z" fill="white"/>
<path d="M15.5399 84.3767C15.0787 83.26 14.4262 82.3266 13.5909 81.6025C12.7643 80.8871 11.7637 80.3463 10.6238 79.9973C9.49271 79.6484 8.24847 79.4739 6.91722 79.4739H0.260986V97H6.89112C8.22237 97 9.4666 96.8168 10.5977 96.4679C11.7376 96.1102 12.7382 95.5606 13.5648 94.8365C14.3913 94.1124 15.0526 93.1964 15.5312 92.1234C16.001 91.0504 16.2447 89.7767 16.2447 88.3285C16.2447 86.8804 16.0097 85.4933 15.5486 84.3767H15.5399ZM10.4846 91.8704C9.61452 92.7253 8.32678 93.1615 6.6823 93.1615H4.53316V83.3036H6.6823C7.57849 83.3036 8.35288 83.4258 8.99675 83.6613C9.63192 83.8968 10.154 84.2371 10.5716 84.6645C10.9806 85.092 11.2938 85.6242 11.4939 86.2348C11.7028 86.8455 11.8072 87.5521 11.8072 88.3111C11.8072 89.8203 11.3634 91.0242 10.4846 91.8704Z" fill="white"/>
<path d="M28.7653 91.3993C28.7653 92.2891 28.5826 93.083 28.2172 93.7809C27.8517 94.4701 27.3645 95.0633 26.7641 95.5257C26.1638 95.9968 25.4677 96.3544 24.6933 96.5987C23.9189 96.843 23.101 96.9651 22.2657 96.9651C21.0563 96.9651 19.9426 96.7819 18.9768 96.4068C18.0109 96.0404 17.167 95.5344 16.4709 94.9063L16.3317 94.7842L18.5678 91.8442L18.7331 91.9838C19.2465 92.4375 19.7772 92.7777 20.308 93.0219C20.8301 93.2575 21.4217 93.3796 22.0569 93.3796C22.7965 93.3796 23.4055 93.179 23.8928 92.7777C24.3714 92.3938 24.6063 91.853 24.6063 91.1376C24.6063 90.5793 24.4236 90.1082 24.0494 89.6807C23.6927 89.2707 23.101 89.0613 22.3005 89.0613C21.9873 89.0613 21.7002 89.0875 21.4304 89.1486C21.1607 89.2096 20.9606 89.2707 20.8214 89.3231L20.656 89.3928L19.5249 87.5957L23.4229 83.5915H17.6803V79.9799H28.2172V82.9023L25.0413 86.4965C26.1986 86.7757 27.1035 87.3166 27.7299 88.1104C28.4086 88.9828 28.7566 90.0908 28.7566 91.3906H28.7653V91.3993Z" fill="white"/>
<path d="M42.3823 88.7734C42.13 88.1017 41.7733 87.5172 41.3121 87.0374C40.851 86.5576 40.2767 86.1825 39.6154 85.912C38.9542 85.6416 38.2146 85.5107 37.4054 85.5107C36.7354 85.5107 36.1177 85.6154 35.5869 85.8161C35.2215 85.9557 34.8821 86.1127 34.5863 86.2784C34.6559 85.8946 34.769 85.5369 34.9256 85.2141C35.1344 84.7779 35.3955 84.3941 35.7087 84.0713C36.0132 83.7573 36.3613 83.513 36.7615 83.3472C37.1531 83.1815 37.5707 83.0942 37.9971 83.0942C38.5539 83.0942 39.0499 83.1815 39.4936 83.3472C39.9548 83.5217 40.2941 83.6613 40.4942 83.766L40.677 83.8532L42.2344 80.6429L42.0604 80.5556C41.6515 80.3462 41.1033 80.1194 40.4333 79.8752C39.7547 79.6309 38.9368 79.5088 37.9971 79.5088C36.7615 79.5088 35.6565 79.7443 34.7168 80.2241C33.7771 80.7039 32.9766 81.3582 32.3327 82.1782C31.6889 82.9983 31.1929 83.9841 30.8797 85.092C30.5577 86.1999 30.4011 87.4125 30.4011 88.6949C30.4011 90.1431 30.5664 91.408 30.8797 92.4374C31.2016 93.4756 31.6541 94.348 32.2196 95.0197C32.7939 95.7001 33.4813 96.2061 34.2731 96.5202C35.0474 96.8255 35.9001 96.9825 36.7876 96.9825C37.736 96.9825 38.58 96.8168 39.3109 96.5027C40.0505 96.1887 40.677 95.7525 41.1816 95.2116C41.695 94.6707 42.0865 94.0252 42.3475 93.3098C42.6173 92.5945 42.7478 91.8093 42.7478 91.0067C42.7478 90.2041 42.626 89.4539 42.3736 88.7822L42.3823 88.7734ZM38.493 92.8562C38.0754 93.336 37.5098 93.589 36.7963 93.589C36.4744 93.589 36.1612 93.5192 35.8479 93.3971C35.5347 93.2749 35.2737 93.0481 35.0387 92.7428C34.8038 92.4374 34.6211 92.0187 34.4732 91.4953C34.334 90.9718 34.2556 90.335 34.2556 89.5586C34.5428 89.323 34.8995 89.1049 35.3172 88.9305C35.7348 88.7473 36.2569 88.66 36.8659 88.66C37.5185 88.66 38.058 88.8694 38.4756 89.2707C38.902 89.6807 39.1195 90.2478 39.1195 90.9631C39.1195 91.7308 38.9107 92.3589 38.493 92.8475V92.8562Z" fill="white"/>
<path d="M56.5998 84.6558C56.3388 83.5915 55.9385 82.6755 55.4077 81.9166C54.8683 81.1576 54.1722 80.5556 53.3456 80.1282C52.519 79.7094 51.5445 79.4913 50.4395 79.4913C49.3345 79.4913 48.3861 79.7094 47.5682 80.1282C46.7503 80.5556 46.0542 81.1489 45.4974 81.9166C44.9405 82.6668 44.5315 83.5915 44.2618 84.6558C43.9921 85.7114 43.8616 86.8804 43.8616 88.1453C43.8616 89.4103 44.0008 90.6142 44.2618 91.6872C44.5315 92.769 44.9492 93.7111 45.4974 94.4788C46.0542 95.2553 46.7416 95.8659 47.5508 96.3021C48.36 96.7296 49.3258 96.9564 50.4134 96.9564C51.501 96.9564 52.519 96.7383 53.3369 96.3021C54.1548 95.8659 54.8422 95.2553 55.399 94.4788C55.9385 93.7111 56.3474 92.769 56.6085 91.6872C56.8695 90.6142 57 89.4277 57 88.1453C57 86.8629 56.8695 85.7114 56.6085 84.6558H56.5998ZM50.4395 93.8856C49.9174 93.8856 49.465 93.7373 49.0996 93.432C48.7341 93.1266 48.4383 92.7166 48.2034 92.2019C47.9684 91.6872 47.8031 91.0853 47.6987 90.3874C47.5943 89.6895 47.5421 88.9392 47.5421 88.1366C47.5421 87.334 47.5943 86.61 47.6987 85.9382C47.8031 85.2665 47.9684 84.6733 48.2034 84.176C48.4383 83.6788 48.7341 83.2862 49.0996 83.007C49.465 82.7279 49.9 82.5796 50.4047 82.5796C50.9094 82.5796 51.3531 82.7191 51.7098 83.007C52.0753 83.2862 52.3711 83.6788 52.606 84.176C52.841 84.6733 53.015 85.2665 53.1281 85.9382C53.2412 86.61 53.2934 87.3515 53.2934 88.1366C53.2934 88.9218 53.2412 89.6982 53.1368 90.3874C53.0324 91.0853 52.8671 91.6872 52.6321 92.2019C52.3972 92.7166 52.1014 93.1266 51.7359 93.432C51.3705 93.7373 50.9355 93.8856 50.4308 93.8856H50.4395Z" fill="white"/>
<path d="M10.8327 61.4505C10.8327 62.4188 9.88434 63.8757 8.95333 64.7219L8.89243 64.7743H5.42944V63.4831C5.42944 63.4831 8.82282 62.2182 9.01424 62.1135C8.92723 62.0786 8.77931 62.035 8.49218 61.9914L7.85701 61.8343C6.8042 61.6337 6.28214 61.0754 6.28214 60.1245C6.28214 58.877 7.80481 57.4026 9.82343 56.696L10.1802 56.9403L10.2063 58.6153L9.68421 59.0166C8.50958 59.2085 8.05713 59.3829 7.88312 59.4789C7.96142 59.4964 8.09194 59.5313 8.29206 59.5661L9.13605 59.7232C10.2672 59.9238 10.8153 60.4909 10.8153 61.4592H10.8327V61.4505Z" fill="white"/>
<path d="M49.3257 60.6043L47.2723 62.6718H46.8546L44.7577 60.6043L46.8024 58.4931H47.2201L49.3257 60.6043Z" fill="white"/>
<path d="M56.8869 67.0861C56.8869 68.4993 56.5824 70.2179 56.1647 71.4305L56.1386 71.5003L56.0777 71.5352C54.7813 72.2942 52.4233 72.8002 50.2132 72.8002C48.3251 72.8002 46.8808 71.9103 46.3065 70.436C46.1847 70.8722 46.0542 71.3084 45.9324 71.7359L45.915 71.8057L45.8628 71.8406C44.984 72.4948 20.0383 72.4948 18.7158 72.4948C16.7232 72.4948 15.5399 71.5527 14.9831 69.4764C14.8786 69.9475 14.7655 70.5233 14.6263 70.9507L14.6089 71.0205L14.5393 71.0554C12.3902 72.3029 9.81468 72.9834 6.96077 72.9834C2.34056 72.9834 0 70.9769 0 67.0076C0 65.3762 0.348038 64.1025 1.06152 62.445L2.61029 62.9946C2.34056 63.5442 2.26225 64.0327 2.26225 64.8528C2.26225 67.3391 3.93283 68.447 7.67425 68.447C10.8762 68.447 12.19 67.9497 13.8693 67.1559C13.8519 66.9029 13.8693 57.7691 13.8693 57.7691L15.3659 55.1519L16.9756 55.1868V65.8473C16.9756 67.3478 17.3236 68.0544 19.2291 68.0544C20.4908 68.0544 41.7124 68.2115 45.8019 67.7491L46.4544 64.3904H48.0467V66.109C48.0467 67.8189 48.5514 68.194 50.8658 68.194C50.8658 68.194 54.2331 68.194 55.225 67.845C54.8161 67.1384 54.4332 66.5975 53.3804 65.6118L53.276 65.5245L54.4158 62.3927L55.3555 62.3578L55.4251 62.4537C56.2952 63.6576 56.8956 65.5594 56.8956 67.0861H56.8869Z" fill="white"/>
<path d="M55.7905 75.7575L53.7458 77.8338H53.3281L51.2312 75.7575L53.2759 73.6551H53.6936L55.7905 75.7575Z" fill="white"/>
<path d="M15.5399 84.3767C15.0787 83.26 14.4262 82.3266 13.5909 81.6025C12.7643 80.8871 11.7637 80.3463 10.6238 79.9973C9.49271 79.6484 8.24847 79.4739 6.91722 79.4739H0.260986V97H6.89112C8.22237 97 9.4666 96.8168 10.5977 96.4679C11.7376 96.1102 12.7382 95.5606 13.5648 94.8365C14.3913 94.1124 15.0526 93.1964 15.5312 92.1234C16.001 91.0504 16.2447 89.7767 16.2447 88.3285C16.2447 86.8804 16.0097 85.4933 15.5486 84.3767H15.5399ZM10.4846 91.8704C9.61452 92.7253 8.32678 93.1615 6.6823 93.1615H4.53316V83.3036H6.6823C7.57849 83.3036 8.35288 83.4258 8.99675 83.6613C9.63192 83.8968 10.154 84.2371 10.5716 84.6645C10.9806 85.092 11.2938 85.6242 11.4939 86.2348C11.7028 86.8455 11.8072 87.5521 11.8072 88.3111C11.8072 89.8203 11.3634 91.0242 10.4846 91.8704Z" fill="white"/>
<path d="M28.7653 91.3993C28.7653 92.2891 28.5826 93.083 28.2172 93.7809C27.8517 94.4701 27.3645 95.0633 26.7641 95.5257C26.1638 95.9968 25.4677 96.3544 24.6933 96.5987C23.9189 96.843 23.101 96.9651 22.2657 96.9651C21.0563 96.9651 19.9426 96.7819 18.9768 96.4068C18.0109 96.0404 17.167 95.5344 16.4709 94.9063L16.3317 94.7842L18.5678 91.8442L18.7331 91.9838C19.2465 92.4375 19.7772 92.7777 20.308 93.0219C20.8301 93.2575 21.4217 93.3796 22.0569 93.3796C22.7965 93.3796 23.4055 93.179 23.8928 92.7777C24.3714 92.3938 24.6063 91.853 24.6063 91.1376C24.6063 90.5793 24.4236 90.1082 24.0494 89.6807C23.6927 89.2707 23.101 89.0613 22.3005 89.0613C21.9873 89.0613 21.7002 89.0875 21.4304 89.1486C21.1607 89.2096 20.9606 89.2707 20.8214 89.3231L20.656 89.3928L19.5249 87.5957L23.4229 83.5915H17.6803V79.9799H28.2172V82.9023L25.0413 86.4965C26.1986 86.7757 27.1035 87.3166 27.7299 88.1104C28.4086 88.9828 28.7566 90.0908 28.7566 91.3906H28.7653V91.3993Z" fill="white"/>
<path d="M42.3823 88.7734C42.13 88.1017 41.7733 87.5172 41.3121 87.0374C40.851 86.5576 40.2767 86.1825 39.6154 85.912C38.9542 85.6416 38.2146 85.5107 37.4054 85.5107C36.7354 85.5107 36.1177 85.6154 35.5869 85.8161C35.2215 85.9557 34.8821 86.1127 34.5863 86.2784C34.6559 85.8946 34.769 85.5369 34.9256 85.2141C35.1344 84.7779 35.3955 84.3941 35.7087 84.0713C36.0132 83.7573 36.3613 83.513 36.7615 83.3472C37.1531 83.1815 37.5707 83.0942 37.9971 83.0942C38.5539 83.0942 39.0499 83.1815 39.4936 83.3472C39.9548 83.5217 40.2941 83.6613 40.4942 83.766L40.677 83.8532L42.2344 80.6429L42.0604 80.5556C41.6515 80.3462 41.1033 80.1194 40.4333 79.8752C39.7547 79.6309 38.9368 79.5088 37.9971 79.5088C36.7615 79.5088 35.6565 79.7443 34.7168 80.2241C33.7771 80.7039 32.9766 81.3582 32.3327 82.1782C31.6889 82.9983 31.1929 83.9841 30.8797 85.092C30.5577 86.1999 30.4011 87.4125 30.4011 88.6949C30.4011 90.1431 30.5664 91.408 30.8797 92.4374C31.2016 93.4756 31.6541 94.348 32.2196 95.0197C32.7939 95.7001 33.4813 96.2061 34.2731 96.5202C35.0474 96.8255 35.9001 96.9825 36.7876 96.9825C37.736 96.9825 38.58 96.8168 39.3109 96.5027C40.0505 96.1887 40.677 95.7525 41.1816 95.2116C41.695 94.6707 42.0865 94.0252 42.3475 93.3098C42.6173 92.5945 42.7478 91.8093 42.7478 91.0067C42.7478 90.2041 42.626 89.4539 42.3736 88.7822L42.3823 88.7734ZM38.493 92.8562C38.0754 93.336 37.5098 93.589 36.7963 93.589C36.4744 93.589 36.1612 93.5192 35.8479 93.3971C35.5347 93.2749 35.2737 93.0481 35.0387 92.7428C34.8038 92.4374 34.6211 92.0187 34.4732 91.4953C34.334 90.9718 34.2556 90.335 34.2556 89.5586C34.5428 89.323 34.8995 89.1049 35.3172 88.9305C35.7348 88.7473 36.2569 88.66 36.8659 88.66C37.5185 88.66 38.058 88.8694 38.4756 89.2707C38.902 89.6807 39.1195 90.2478 39.1195 90.9631C39.1195 91.7308 38.9107 92.3589 38.493 92.8475V92.8562Z" fill="white"/>
<path d="M56.5998 84.6558C56.3388 83.5915 55.9385 82.6755 55.4077 81.9166C54.8683 81.1576 54.1722 80.5556 53.3456 80.1282C52.519 79.7094 51.5445 79.4913 50.4395 79.4913C49.3345 79.4913 48.3861 79.7094 47.5682 80.1282C46.7503 80.5556 46.0542 81.1489 45.4974 81.9166C44.9405 82.6668 44.5315 83.5915 44.2618 84.6558C43.9921 85.7114 43.8616 86.8804 43.8616 88.1453C43.8616 89.4103 44.0008 90.6142 44.2618 91.6872C44.5315 92.769 44.9492 93.7111 45.4974 94.4788C46.0542 95.2553 46.7416 95.8659 47.5508 96.3021C48.36 96.7296 49.3258 96.9564 50.4134 96.9564C51.501 96.9564 52.519 96.7383 53.3369 96.3021C54.1548 95.8659 54.8422 95.2553 55.399 94.4788C55.9385 93.7111 56.3474 92.769 56.6085 91.6872C56.8695 90.6142 57 89.4277 57 88.1453C57 86.8629 56.8695 85.7114 56.6085 84.6558H56.5998ZM50.4395 93.8856C49.9174 93.8856 49.465 93.7373 49.0996 93.432C48.7341 93.1266 48.4383 92.7166 48.2034 92.2019C47.9684 91.6872 47.8031 91.0853 47.6987 90.3874C47.5943 89.6895 47.5421 88.9392 47.5421 88.1366C47.5421 87.334 47.5943 86.61 47.6987 85.9382C47.8031 85.2665 47.9684 84.6733 48.2034 84.176C48.4383 83.6788 48.7341 83.2862 49.0996 83.007C49.465 82.7279 49.9 82.5796 50.4047 82.5796C50.9094 82.5796 51.3531 82.7191 51.7098 83.007C52.0753 83.2862 52.3711 83.6788 52.606 84.176C52.841 84.6733 53.015 85.2665 53.1281 85.9382C53.2412 86.61 53.2934 87.3515 53.2934 88.1366C53.2934 88.9218 53.2412 89.6982 53.1368 90.3874C53.0324 91.0853 52.8671 91.6872 52.6321 92.2019C52.3972 92.7166 52.1014 93.1266 51.7359 93.432C51.3705 93.7373 50.9355 93.8856 50.4308 93.8856H50.4395Z" fill="white"/>
<path d="M10.8327 61.4505C10.8327 62.4188 9.88434 63.8757 8.95333 64.7219L8.89243 64.7743H5.42944V63.4831C5.42944 63.4831 8.82282 62.2182 9.01424 62.1135C8.92723 62.0786 8.77931 62.035 8.49218 61.9914L7.85701 61.8343C6.8042 61.6337 6.28214 61.0754 6.28214 60.1245C6.28214 58.877 7.80481 57.4026 9.82343 56.696L10.1802 56.9403L10.2063 58.6153L9.68421 59.0166C8.50958 59.2085 8.05713 59.3829 7.88312 59.4789C7.96142 59.4964 8.09194 59.5313 8.29206 59.5661L9.13605 59.7232C10.2672 59.9238 10.8153 60.4909 10.8153 61.4592H10.8327V61.4505Z" fill="white"/>
<path d="M49.3257 60.6043L47.2723 62.6718H46.8546L44.7577 60.6043L46.8024 58.4931H47.2201L49.3257 60.6043Z" fill="white"/>
<path d="M56.8869 67.0861C56.8869 68.4993 56.5824 70.2179 56.1647 71.4305L56.1386 71.5003L56.0777 71.5352C54.7813 72.2942 52.4233 72.8002 50.2132 72.8002C48.3251 72.8002 46.8808 71.9103 46.3065 70.436C46.1847 70.8722 46.0542 71.3084 45.9324 71.7359L45.915 71.8057L45.8628 71.8406C44.984 72.4948 20.0383 72.4948 18.7158 72.4948C16.7232 72.4948 15.5399 71.5527 14.9831 69.4764C14.8786 69.9475 14.7655 70.5233 14.6263 70.9507L14.6089 71.0205L14.5393 71.0554C12.3902 72.3029 9.81468 72.9834 6.96077 72.9834C2.34056 72.9834 0 70.9769 0 67.0076C0 65.3762 0.348038 64.1025 1.06152 62.445L2.61029 62.9946C2.34056 63.5442 2.26225 64.0327 2.26225 64.8528C2.26225 67.3391 3.93283 68.447 7.67425 68.447C10.8762 68.447 12.19 67.9497 13.8693 67.1559C13.8519 66.9029 13.8693 57.7691 13.8693 57.7691L15.3659 55.1519L16.9756 55.1868V65.8473C16.9756 67.3478 17.3236 68.0544 19.2291 68.0544C20.4908 68.0544 41.7124 68.2115 45.8019 67.7491L46.4544 64.3904H48.0467V66.109C48.0467 67.8189 48.5514 68.194 50.8658 68.194C50.8658 68.194 54.2331 68.194 55.225 67.845C54.8161 67.1384 54.4332 66.5975 53.3804 65.6118L53.276 65.5245L54.4158 62.3927L55.3555 62.3578L55.4251 62.4537C56.2952 63.6576 56.8956 65.5594 56.8956 67.0861H56.8869Z" fill="white"/>
<path d="M55.7905 75.7575L53.7458 77.8338H53.3281L51.2312 75.7575L53.2759 73.6551H53.6936L55.7905 75.7575Z" fill="white"/>
<path d="M15.5399 84.3767C15.0787 83.26 14.4262 82.3266 13.5909 81.6025C12.7643 80.8871 11.7637 80.3463 10.6238 79.9973C9.49271 79.6484 8.24847 79.4739 6.91722 79.4739H0.260986V97H6.89112C8.22237 97 9.4666 96.8168 10.5977 96.4679C11.7376 96.1102 12.7382 95.5606 13.5648 94.8365C14.3913 94.1124 15.0526 93.1964 15.5312 92.1234C16.001 91.0504 16.2447 89.7767 16.2447 88.3285C16.2447 86.8804 16.0097 85.4933 15.5486 84.3767H15.5399ZM10.4846 91.8704C9.61452 92.7253 8.32678 93.1615 6.6823 93.1615H4.53316V83.3036H6.6823C7.57849 83.3036 8.35288 83.4258 8.99675 83.6613C9.63192 83.8968 10.154 84.2371 10.5716 84.6645C10.9806 85.092 11.2938 85.6242 11.4939 86.2348C11.7028 86.8455 11.8072 87.5521 11.8072 88.3111C11.8072 89.8203 11.3634 91.0242 10.4846 91.8704Z" fill="white"/>
<path d="M28.7653 91.3993C28.7653 92.2891 28.5826 93.083 28.2172 93.7809C27.8517 94.4701 27.3645 95.0633 26.7641 95.5257C26.1638 95.9968 25.4677 96.3544 24.6933 96.5987C23.9189 96.843 23.101 96.9651 22.2657 96.9651C21.0563 96.9651 19.9426 96.7819 18.9768 96.4068C18.0109 96.0404 17.167 95.5344 16.4709 94.9063L16.3317 94.7842L18.5678 91.8442L18.7331 91.9838C19.2465 92.4375 19.7772 92.7777 20.308 93.0219C20.8301 93.2575 21.4217 93.3796 22.0569 93.3796C22.7965 93.3796 23.4055 93.179 23.8928 92.7777C24.3714 92.3938 24.6063 91.853 24.6063 91.1376C24.6063 90.5793 24.4236 90.1082 24.0494 89.6807C23.6927 89.2707 23.101 89.0613 22.3005 89.0613C21.9873 89.0613 21.7002 89.0875 21.4304 89.1486C21.1607 89.2096 20.9606 89.2707 20.8214 89.3231L20.656 89.3928L19.5249 87.5957L23.4229 83.5915H17.6803V79.9799H28.2172V82.9023L25.0413 86.4965C26.1986 86.7757 27.1035 87.3166 27.7299 88.1104C28.4086 88.9828 28.7566 90.0908 28.7566 91.3906H28.7653V91.3993Z" fill="white"/>
<path d="M42.3823 88.7734C42.13 88.1017 41.7733 87.5172 41.3121 87.0374C40.851 86.5576 40.2767 86.1825 39.6154 85.912C38.9542 85.6416 38.2146 85.5107 37.4054 85.5107C36.7354 85.5107 36.1177 85.6154 35.5869 85.8161C35.2215 85.9557 34.8821 86.1127 34.5863 86.2784C34.6559 85.8946 34.769 85.5369 34.9256 85.2141C35.1344 84.7779 35.3955 84.3941 35.7087 84.0713C36.0132 83.7573 36.3613 83.513 36.7615 83.3472C37.1531 83.1815 37.5707 83.0942 37.9971 83.0942C38.5539 83.0942 39.0499 83.1815 39.4936 83.3472C39.9548 83.5217 40.2941 83.6613 40.4942 83.766L40.677 83.8532L42.2344 80.6429L42.0604 80.5556C41.6515 80.3462 41.1033 80.1194 40.4333 79.8752C39.7547 79.6309 38.9368 79.5088 37.9971 79.5088C36.7615 79.5088 35.6565 79.7443 34.7168 80.2241C33.7771 80.7039 32.9766 81.3582 32.3327 82.1782C31.6889 82.9983 31.1929 83.9841 30.8797 85.092C30.5577 86.1999 30.4011 87.4125 30.4011 88.6949C30.4011 90.1431 30.5664 91.408 30.8797 92.4374C31.2016 93.4756 31.6541 94.348 32.2196 95.0197C32.7939 95.7001 33.4813 96.2061 34.2731 96.5202C35.0474 96.8255 35.9001 96.9825 36.7876 96.9825C37.736 96.9825 38.58 96.8168 39.3109 96.5027C40.0505 96.1887 40.677 95.7525 41.1816 95.2116C41.695 94.6707 42.0865 94.0252 42.3475 93.3098C42.6173 92.5945 42.7478 91.8093 42.7478 91.0067C42.7478 90.2041 42.626 89.4539 42.3736 88.7822L42.3823 88.7734ZM38.493 92.8562C38.0754 93.336 37.5098 93.589 36.7963 93.589C36.4744 93.589 36.1612 93.5192 35.8479 93.3971C35.5347 93.2749 35.2737 93.0481 35.0387 92.7428C34.8038 92.4374 34.6211 92.0187 34.4732 91.4953C34.334 90.9718 34.2556 90.335 34.2556 89.5586C34.5428 89.323 34.8995 89.1049 35.3172 88.9305C35.7348 88.7473 36.2569 88.66 36.8659 88.66C37.5185 88.66 38.058 88.8694 38.4756 89.2707C38.902 89.6807 39.1195 90.2478 39.1195 90.9631C39.1195 91.7308 38.9107 92.3589 38.493 92.8475V92.8562Z" fill="white"/>
<path d="M56.5998 84.6558C56.3388 83.5915 55.9385 82.6755 55.4077 81.9166C54.8683 81.1576 54.1722 80.5556 53.3456 80.1282C52.519 79.7094 51.5445 79.4913 50.4395 79.4913C49.3345 79.4913 48.3861 79.7094 47.5682 80.1282C46.7503 80.5556 46.0542 81.1489 45.4974 81.9166C44.9405 82.6668 44.5315 83.5915 44.2618 84.6558C43.9921 85.7114 43.8616 86.8804 43.8616 88.1453C43.8616 89.4103 44.0008 90.6142 44.2618 91.6872C44.5315 92.769 44.9492 93.7111 45.4974 94.4788C46.0542 95.2553 46.7416 95.8659 47.5508 96.3021C48.36 96.7296 49.3258 96.9564 50.4134 96.9564C51.501 96.9564 52.519 96.7383 53.3369 96.3021C54.1548 95.8659 54.8422 95.2553 55.399 94.4788C55.9385 93.7111 56.3474 92.769 56.6085 91.6872C56.8695 90.6142 57 89.4277 57 88.1453C57 86.8629 56.8695 85.7114 56.6085 84.6558H56.5998ZM50.4395 93.8856C49.9174 93.8856 49.465 93.7373 49.0996 93.432C48.7341 93.1266 48.4383 92.7166 48.2034 92.2019C47.9684 91.6872 47.8031 91.0853 47.6987 90.3874C47.5943 89.6895 47.5421 88.9392 47.5421 88.1366C47.5421 87.334 47.5943 86.61 47.6987 85.9382C47.8031 85.2665 47.9684 84.6733 48.2034 84.176C48.4383 83.6788 48.7341 83.2862 49.0996 83.007C49.465 82.7279 49.9 82.5796 50.4047 82.5796C50.9094 82.5796 51.3531 82.7191 51.7098 83.007C52.0753 83.2862 52.3711 83.6788 52.606 84.176C52.841 84.6733 53.015 85.2665 53.1281 85.9382C53.2412 86.61 53.2934 87.3515 53.2934 88.1366C53.2934 88.9218 53.2412 89.6982 53.1368 90.3874C53.0324 91.0853 52.8671 91.6872 52.6321 92.2019C52.3972 92.7166 52.1014 93.1266 51.7359 93.432C51.3705 93.7373 50.9355 93.8856 50.4308 93.8856H50.4395Z" fill="white"/>
<path d="M10.8327 61.4505C10.8327 62.4188 9.88434 63.8757 8.95333 64.7219L8.89243 64.7743H5.42944V63.4831C5.42944 63.4831 8.82282 62.2182 9.01424 62.1135C8.92723 62.0786 8.77931 62.035 8.49218 61.9914L7.85701 61.8343C6.8042 61.6337 6.28214 61.0754 6.28214 60.1245C6.28214 58.877 7.80481 57.4026 9.82343 56.696L10.1802 56.9403L10.2063 58.6153L9.68421 59.0166C8.50958 59.2085 8.05713 59.3829 7.88312 59.4789C7.96142 59.4964 8.09194 59.5313 8.29206 59.5661L9.13605 59.7232C10.2672 59.9238 10.8153 60.4909 10.8153 61.4592H10.8327V61.4505Z" fill="white"/>
<path d="M49.3257 60.6043L47.2723 62.6718H46.8546L44.7577 60.6043L46.8024 58.4931H47.2201L49.3257 60.6043Z" fill="white"/>
<path d="M56.8869 67.0861C56.8869 68.4993 56.5824 70.2179 56.1647 71.4305L56.1386 71.5003L56.0777 71.5352C54.7813 72.2942 52.4233 72.8002 50.2132 72.8002C48.3251 72.8002 46.8808 71.9103 46.3065 70.436C46.1847 70.8722 46.0542 71.3084 45.9324 71.7359L45.915 71.8057L45.8628 71.8406C44.984 72.4948 20.0383 72.4948 18.7158 72.4948C16.7232 72.4948 15.5399 71.5527 14.9831 69.4764C14.8786 69.9475 14.7655 70.5233 14.6263 70.9507L14.6089 71.0205L14.5393 71.0554C12.3902 72.3029 9.81468 72.9834 6.96077 72.9834C2.34056 72.9834 0 70.9769 0 67.0076C0 65.3762 0.348038 64.1025 1.06152 62.445L2.61029 62.9946C2.34056 63.5442 2.26225 64.0327 2.26225 64.8528C2.26225 67.3391 3.93283 68.447 7.67425 68.447C10.8762 68.447 12.19 67.9497 13.8693 67.1559C13.8519 66.9029 13.8693 57.7691 13.8693 57.7691L15.3659 55.1519L16.9756 55.1868V65.8473C16.9756 67.3478 17.3236 68.0544 19.2291 68.0544C20.4908 68.0544 41.7124 68.2115 45.8019 67.7491L46.4544 64.3904H48.0467V66.109C48.0467 67.8189 48.5514 68.194 50.8658 68.194C50.8658 68.194 54.2331 68.194 55.225 67.845C54.8161 67.1384 54.4332 66.5975 53.3804 65.6118L53.276 65.5245L54.4158 62.3927L55.3555 62.3578L55.4251 62.4537C56.2952 63.6576 56.8956 65.5594 56.8956 67.0861H56.8869Z" fill="white"/>
<path d="M55.7905 75.7575L53.7458 77.8338H53.3281L51.2312 75.7575L53.2759 73.6551H53.6936L55.7905 75.7575Z" fill="white"/>
<path d="M15.5399 84.3767C15.0787 83.26 14.4262 82.3266 13.5909 81.6025C12.7643 80.8871 11.7637 80.3463 10.6238 79.9973C9.49271 79.6484 8.24847 79.4739 6.91722 79.4739H0.260986V97H6.89112C8.22237 97 9.4666 96.8168 10.5977 96.4679C11.7376 96.1102 12.7382 95.5606 13.5648 94.8365C14.3913 94.1124 15.0526 93.1964 15.5312 92.1234C16.001 91.0504 16.2447 89.7767 16.2447 88.3285C16.2447 86.8804 16.0097 85.4933 15.5486 84.3767H15.5399ZM10.4846 91.8704C9.61452 92.7253 8.32678 93.1615 6.6823 93.1615H4.53316V83.3036H6.6823C7.57849 83.3036 8.35288 83.4258 8.99675 83.6613C9.63192 83.8968 10.154 84.2371 10.5716 84.6645C10.9806 85.092 11.2938 85.6242 11.4939 86.2348C11.7028 86.8455 11.8072 87.5521 11.8072 88.3111C11.8072 89.8203 11.3634 91.0242 10.4846 91.8704Z" fill="white"/>
<path d="M28.7653 91.3993C28.7653 92.2891 28.5826 93.083 28.2172 93.7809C27.8517 94.4701 27.3645 95.0633 26.7641 95.5257C26.1638 95.9968 25.4677 96.3544 24.6933 96.5987C23.9189 96.843 23.101 96.9651 22.2657 96.9651C21.0563 96.9651 19.9426 96.7819 18.9768 96.4068C18.0109 96.0404 17.167 95.5344 16.4709 94.9063L16.3317 94.7842L18.5678 91.8442L18.7331 91.9838C19.2465 92.4375 19.7772 92.7777 20.308 93.0219C20.8301 93.2575 21.4217 93.3796 22.0569 93.3796C22.7965 93.3796 23.4055 93.179 23.8928 92.7777C24.3714 92.3938 24.6063 91.853 24.6063 91.1376C24.6063 90.5793 24.4236 90.1082 24.0494 89.6807C23.6927 89.2707 23.101 89.0613 22.3005 89.0613C21.9873 89.0613 21.7002 89.0875 21.4304 89.1486C21.1607 89.2096 20.9606 89.2707 20.8214 89.3231L20.656 89.3928L19.5249 87.5957L23.4229 83.5915H17.6803V79.9799H28.2172V82.9023L25.0413 86.4965C26.1986 86.7757 27.1035 87.3166 27.7299 88.1104C28.4086 88.9828 28.7566 90.0908 28.7566 91.3906H28.7653V91.3993Z" fill="white"/>
<path d="M42.3823 88.7734C42.13 88.1017 41.7733 87.5172 41.3121 87.0374C40.851 86.5576 40.2767 86.1825 39.6154 85.912C38.9542 85.6416 38.2146 85.5107 37.4054 85.5107C36.7354 85.5107 36.1177 85.6154 35.5869 85.8161C35.2215 85.9557 34.8821 86.1127 34.5863 86.2784C34.6559 85.8946 34.769 85.5369 34.9256 85.2141C35.1344 84.7779 35.3955 84.3941 35.7087 84.0713C36.0132 83.7573 36.3613 83.513 36.7615 83.3472C37.1531 83.1815 37.5707 83.0942 37.9971 83.0942C38.5539 83.0942 39.0499 83.1815 39.4936 83.3472C39.9548 83.5217 40.2941 83.6613 40.4942 83.766L40.677 83.8532L42.2344 80.6429L42.0604 80.5556C41.6515 80.3462 41.1033 80.1194 40.4333 79.8752C39.7547 79.6309 38.9368 79.5088 37.9971 79.5088C36.7615 79.5088 35.6565 79.7443 34.7168 80.2241C33.7771 80.7039 32.9766 81.3582 32.3327 82.1782C31.6889 82.9983 31.1929 83.9841 30.8797 85.092C30.5577 86.1999 30.4011 87.4125 30.4011 88.6949C30.4011 90.1431 30.5664 91.408 30.8797 92.4374C31.2016 93.4756 31.6541 94.348 32.2196 95.0197C32.7939 95.7001 33.4813 96.2061 34.2731 96.5202C35.0474 96.8255 35.9001 96.9825 36.7876 96.9825C37.736 96.9825 38.58 96.8168 39.3109 96.5027C40.0505 96.1887 40.677 95.7525 41.1816 95.2116C41.695 94.6707 42.0865 94.0252 42.3475 93.3098C42.6173 92.5945 42.7478 91.8093 42.7478 91.0067C42.7478 90.2041 42.626 89.4539 42.3736 88.7822L42.3823 88.7734ZM38.493 92.8562C38.0754 93.336 37.5098 93.589 36.7963 93.589C36.4744 93.589 36.1612 93.5192 35.8479 93.3971C35.5347 93.2749 35.2737 93.0481 35.0387 92.7428C34.8038 92.4374 34.6211 92.0187 34.4732 91.4953C34.334 90.9718 34.2556 90.335 34.2556 89.5586C34.5428 89.323 34.8995 89.1049 35.3172 88.9305C35.7348 88.7473 36.2569 88.66 36.8659 88.66C37.5185 88.66 38.058 88.8694 38.4756 89.2707C38.902 89.6807 39.1195 90.2478 39.1195 90.9631C39.1195 91.7308 38.9107 92.3589 38.493 92.8475V92.8562Z" fill="white"/>
<path d="M56.5998 84.6558C56.3388 83.5915 55.9385 82.6755 55.4077 81.9166C54.8683 81.1576 54.1722 80.5556 53.3456 80.1282C52.519 79.7094 51.5445 79.4913 50.4395 79.4913C49.3345 79.4913 48.3861 79.7094 47.5682 80.1282C46.7503 80.5556 46.0542 81.1489 45.4974 81.9166C44.9405 82.6668 44.5315 83.5915 44.2618 84.6558C43.9921 85.7114 43.8616 86.8804 43.8616 88.1453C43.8616 89.4103 44.0008 90.6142 44.2618 91.6872C44.5315 92.769 44.9492 93.7111 45.4974 94.4788C46.0542 95.2553 46.7416 95.8659 47.5508 96.3021C48.36 96.7296 49.3258 96.9564 50.4134 96.9564C51.501 96.9564 52.519 96.7383 53.3369 96.3021C54.1548 95.8659 54.8422 95.2553 55.399 94.4788C55.9385 93.7111 56.3474 92.769 56.6085 91.6872C56.8695 90.6142 57 89.4277 57 88.1453C57 86.8629 56.8695 85.7114 56.6085 84.6558H56.5998ZM50.4395 93.8856C49.9174 93.8856 49.465 93.7373 49.0996 93.432C48.7341 93.1266 48.4383 92.7166 48.2034 92.2019C47.9684 91.6872 47.8031 91.0853 47.6987 90.3874C47.5943 89.6895 47.5421 88.9392 47.5421 88.1366C47.5421 87.334 47.5943 86.61 47.6987 85.9382C47.8031 85.2665 47.9684 84.6733 48.2034 84.176C48.4383 83.6788 48.7341 83.2862 49.0996 83.007C49.465 82.7279 49.9 82.5796 50.4047 82.5796C50.9094 82.5796 51.3531 82.7191 51.7098 83.007C52.0753 83.2862 52.3711 83.6788 52.606 84.176C52.841 84.6733 53.015 85.2665 53.1281 85.9382C53.2412 86.61 53.2934 87.3515 53.2934 88.1366C53.2934 88.9218 53.2412 89.6982 53.1368 90.3874C53.0324 91.0853 52.8671 91.6872 52.6321 92.2019C52.3972 92.7166 52.1014 93.1266 51.7359 93.432C51.3705 93.7373 50.9355 93.8856 50.4308 93.8856H50.4395Z" fill="white"/>
<path d="M10.8327 61.4505C10.8327 62.4188 9.88434 63.8757 8.95333 64.7219L8.89243 64.7743H5.42944V63.4831C5.42944 63.4831 8.82282 62.2182 9.01424 62.1135C8.92723 62.0786 8.77931 62.035 8.49218 61.9914L7.85701 61.8343C6.8042 61.6337 6.28214 61.0754 6.28214 60.1245C6.28214 58.877 7.80481 57.4026 9.82343 56.696L10.1802 56.9403L10.2063 58.6153L9.68421 59.0166C8.50958 59.2085 8.05713 59.3829 7.88312 59.4789C7.96142 59.4964 8.09194 59.5313 8.29206 59.5661L9.13605 59.7232C10.2672 59.9238 10.8153 60.4909 10.8153 61.4592H10.8327V61.4505Z" fill="white"/>
<path d="M49.3257 60.6043L47.2723 62.6718H46.8546L44.7577 60.6043L46.8024 58.4931H47.2201L49.3257 60.6043Z" fill="white"/>
<path d="M56.8869 67.0861C56.8869 68.4993 56.5824 70.2179 56.1647 71.4305L56.1386 71.5003L56.0777 71.5352C54.7813 72.2942 52.4233 72.8002 50.2132 72.8002C48.3251 72.8002 46.8808 71.9103 46.3065 70.436C46.1847 70.8722 46.0542 71.3084 45.9324 71.7359L45.915 71.8057L45.8628 71.8406C44.984 72.4948 20.0383 72.4948 18.7158 72.4948C16.7232 72.4948 15.5399 71.5527 14.9831 69.4764C14.8786 69.9475 14.7655 70.5233 14.6263 70.9507L14.6089 71.0205L14.5393 71.0554C12.3902 72.3029 9.81468 72.9834 6.96077 72.9834C2.34056 72.9834 0 70.9769 0 67.0076C0 65.3762 0.348038 64.1025 1.06152 62.445L2.61029 62.9946C2.34056 63.5442 2.26225 64.0327 2.26225 64.8528C2.26225 67.3391 3.93283 68.447 7.67425 68.447C10.8762 68.447 12.19 67.9497 13.8693 67.1559C13.8519 66.9029 13.8693 57.7691 13.8693 57.7691L15.3659 55.1519L16.9756 55.1868V65.8473C16.9756 67.3478 17.3236 68.0544 19.2291 68.0544C20.4908 68.0544 41.7124 68.2115 45.8019 67.7491L46.4544 64.3904H48.0467V66.109C48.0467 67.8189 48.5514 68.194 50.8658 68.194C50.8658 68.194 54.2331 68.194 55.225 67.845C54.8161 67.1384 54.4332 66.5975 53.3804 65.6118L53.276 65.5245L54.4158 62.3927L55.3555 62.3578L55.4251 62.4537C56.2952 63.6576 56.8956 65.5594 56.8956 67.0861H56.8869Z" fill="white"/>
<path d="M55.7905 75.7575L53.7458 77.8338H53.3281L51.2312 75.7575L53.2759 73.6551H53.6936L55.7905 75.7575Z" fill="white"/>
<path d="M52.8932 0.898552V41.63C52.8932 41.8743 52.7887 42.1011 52.6234 42.2756L45.7932 48.9231C45.6278 49.0889 45.4103 49.1761 45.1754 49.1761H29.2526C28.7567 49.1761 28.3564 48.7748 28.3564 48.2775V41.7696L21.4131 48.7225C21.1781 48.958 20.804 48.958 20.5691 48.7225L4.26347 32.374C4.02855 32.1385 4.02855 31.7634 4.26347 31.5278L20.5778 15.1794C20.8127 14.9439 21.1868 14.9439 21.4218 15.1794L28.3651 22.1323V7.8427C28.3651 7.60716 28.4521 7.38034 28.6262 7.21459L35.4564 0.270438C35.6217 0.0959619 35.8567 0 36.0916 0H51.9969C52.4929 0 52.8932 0.401295 52.8932 0.898552Z" fill="white"/>
</g>
<defs>
<clipPath id="clip0_5285_1347">
<rect width="57" height="97" fill="white"/>
</clipPath>
</defs>
</svg>
