<svg width="8" height="15" viewBox="0 0 8 15" fill="none" xmlns="http://www.w3.org/2000/svg">
<path d="M2.48957 8.41459C2.43641 8.41459 1.26695 8.41459 0.735382 8.41459C0.451877 8.41459 0.363281 8.31006 0.363281 8.04874C0.363281 7.35187 0.363281 6.63757 0.363281 5.9407C0.363281 5.66195 0.469596 5.57485 0.735382 5.57485H2.48957C2.48957 5.52258 2.48957 4.51212 2.48957 4.04173C2.48957 3.34486 2.6136 2.68283 2.96798 2.07307C3.34008 1.44588 3.87165 1.02776 4.54498 0.783856C4.98796 0.62706 5.43093 0.557373 5.90935 0.557373H7.64581C7.89388 0.557373 8.00019 0.661904 8.00019 0.905809V2.89189C8.00019 3.1358 7.89388 3.24033 7.64581 3.24033C7.1674 3.24033 6.68898 3.24033 6.21057 3.25775C5.73216 3.25775 5.48409 3.48423 5.48409 3.97204C5.46637 4.49469 5.48409 4.99993 5.48409 5.54H7.5395C7.823 5.54 7.92932 5.64453 7.92932 5.92328V8.03132C7.92932 8.31006 7.84072 8.39717 7.5395 8.39717C6.90161 8.39717 5.53725 8.39717 5.48409 8.39717V14.0767C5.48409 14.3728 5.39549 14.4774 5.07655 14.4774C4.33235 14.4774 3.60587 14.4774 2.86167 14.4774C2.59588 14.4774 2.48957 14.3728 2.48957 14.1115C2.48957 12.2822 2.48957 8.46686 2.48957 8.41459Z" fill="#293242"/>
</svg>
