<svg width="29" height="22" viewBox="0 0 29 22" fill="none" xmlns="http://www.w3.org/2000/svg">
<path d="M16.3125 21.75H1.8125C0.725 21.75 0 21.025 0 19.9375C0 18.85 0.725 18.125 1.8125 18.125H16.3125C17.4 18.125 18.125 18.85 18.125 19.9375C18.125 21.025 17.4 21.75 16.3125 21.75Z" fill="white"/>
<path d="M27.1875 12.6875H1.8125C0.725 12.6875 0 11.9625 0 10.875C0 9.7875 0.725 9.0625 1.8125 9.0625H27.1875C28.275 9.0625 29 9.7875 29 10.875C29 11.9625 28.275 12.6875 27.1875 12.6875Z" fill="white"/>
<path d="M27.1873 3.625H12.6873C11.5998 3.625 10.8748 2.9 10.8748 1.8125C10.8748 0.725 11.5998 0 12.6873 0H27.1873C28.2748 0 28.9998 0.725 28.9998 1.8125C28.9998 2.9 28.2748 3.625 27.1873 3.625Z" fill="white"/>
</svg>
