<svg width="14" height="15" viewBox="0 0 14 15" fill="none" xmlns="http://www.w3.org/2000/svg">
<path d="M6.95936 1.8112C8.8177 1.8112 9.03781 1.81828 9.77203 1.85208C10.4504 1.88274 10.8191 1.99672 11.0644 2.09184C11.389 2.21841 11.6209 2.36855 11.8646 2.61224C12.1083 2.85593 12.2593 3.08783 12.385 3.41249C12.4801 3.65776 12.5933 4.02644 12.6248 4.70484C12.6586 5.43906 12.6657 5.65917 12.6657 7.51751C12.6657 9.37586 12.6586 9.59597 12.6248 10.3302C12.5941 11.0086 12.4801 11.3773 12.385 11.6225C12.2585 11.9472 12.1083 12.1791 11.8646 12.4228C11.6209 12.6665 11.389 12.8174 11.0644 12.9432C10.8191 13.0383 10.4504 13.1515 9.77203 13.1829C9.0386 13.2167 8.81849 13.2238 6.95936 13.2238C5.10023 13.2238 4.8809 13.2167 4.14668 13.1829C3.46828 13.1523 3.0996 13.0383 2.85434 12.9432C2.52968 12.8166 2.29777 12.6665 2.05408 12.4228C1.81039 12.1791 1.65946 11.9472 1.53368 11.6225C1.43857 11.3773 1.32537 11.0086 1.29393 10.3302C1.26013 9.59597 1.25305 9.37586 1.25305 7.51751C1.25305 5.65917 1.26013 5.43906 1.29393 4.70484C1.32459 4.02644 1.43857 3.65776 1.53368 3.41249C1.66025 3.08783 1.81039 2.85593 2.05408 2.61224C2.29777 2.36855 2.52968 2.21762 2.85434 2.09184C3.0996 1.99672 3.46828 1.88353 4.14668 1.85208C4.8809 1.81828 5.10101 1.8112 6.95936 1.8112ZM6.95936 0.557373C5.06878 0.557373 4.83217 0.565234 4.09009 0.599037C3.34958 0.632839 2.84333 0.750754 2.40076 0.92291C1.94325 1.10057 1.55491 1.33876 1.16815 1.72552C0.781384 2.11228 0.543198 2.50062 0.365539 2.95813C0.193383 3.4007 0.075468 3.90695 0.0416657 4.64746C0.00786332 5.38954 0 5.62694 0 7.51673C0 9.40652 0.00786332 9.64392 0.0416657 10.386C0.075468 11.1265 0.193383 11.6328 0.365539 12.0753C0.543198 12.5328 0.781384 12.9212 1.16815 13.3079C1.55491 13.6947 1.94325 13.9329 2.40076 14.1105C2.84333 14.2827 3.34958 14.4006 4.09009 14.4344C4.83217 14.4682 5.06957 14.4761 6.95936 14.4761C8.84915 14.4761 9.08655 14.4682 9.82863 14.4344C10.5691 14.4006 11.0754 14.2827 11.518 14.1105C11.9755 13.9329 12.3638 13.6947 12.7506 13.3079C13.1373 12.9212 13.3755 12.5328 13.5532 12.0753C13.7253 11.6328 13.8432 11.1265 13.877 10.386C13.9109 9.64392 13.9187 9.40652 13.9187 7.51673C13.9187 5.62694 13.9109 5.38954 13.877 4.64746C13.8432 3.90695 13.7253 3.4007 13.5532 2.95813C13.3755 2.50062 13.1373 2.11228 12.7506 1.72552C12.3638 1.33876 11.9755 1.10057 11.518 0.92291C11.0754 0.750754 10.5691 0.632839 9.82863 0.599037C9.08655 0.565234 8.84915 0.557373 6.95936 0.557373Z" fill="#293242"/>
<path d="M6.95936 3.94312C4.98546 3.94312 3.38574 5.54362 3.38574 7.51673C3.38574 9.48985 4.98624 11.0903 6.95936 11.0903C8.93247 11.0903 10.533 9.48985 10.533 7.51673C10.533 5.54362 8.93247 3.94312 6.95936 3.94312ZM6.95936 9.8373C5.67801 9.8373 4.63957 8.79886 4.63957 7.51752C4.63957 6.23617 5.67801 5.19773 6.95936 5.19773C8.2407 5.19773 9.27914 6.23617 9.27914 7.51752C9.27914 8.79886 8.2407 9.8373 6.95936 9.8373Z" fill="#293242"/>
<path d="M10.6747 4.63648C11.1358 4.63648 11.5095 4.26271 11.5095 3.80164C11.5095 3.34057 11.1358 2.9668 10.6747 2.9668C10.2136 2.9668 9.83984 3.34057 9.83984 3.80164C9.83984 4.26271 10.2136 4.63648 10.6747 4.63648Z" fill="#293242"/>
</svg>
