<svg width="15" height="15" viewBox="0 0 15 15" fill="none" xmlns="http://www.w3.org/2000/svg">
<path d="M7.85521 6.43539C8.04865 6.21851 8.20775 5.99744 8.40621 5.80987C9.01666 5.23459 9.73931 4.94402 10.5825 4.95156C11.0456 4.95575 11.5045 4.98924 11.9508 5.1182C12.9724 5.41379 13.567 6.11717 13.85 7.11533C14.0627 7.86394 14.102 8.63266 14.1029 9.40388C14.1054 11.0301 14.0978 12.6571 14.102 14.2833C14.102 14.4357 14.0593 14.4759 13.9094 14.4742C13.0712 14.4675 12.2338 14.4667 11.3956 14.4742C11.2483 14.4759 11.2164 14.4298 11.2164 14.2908C11.2215 12.7433 11.2223 11.195 11.2173 9.64755C11.2164 9.25984 11.1913 8.87214 11.0825 8.49448C10.8823 7.79946 10.3849 7.4461 9.65725 7.48462C8.66328 7.53738 8.14662 8.0289 8.02017 9.03961C7.99003 9.28078 7.9758 9.52279 7.9758 9.76563C7.97747 11.2712 7.97412 12.776 7.97998 14.2816C7.97998 14.4315 7.94314 14.4759 7.7899 14.4742C6.94582 14.4667 6.10175 14.4675 5.25767 14.4742C5.12202 14.475 5.0835 14.439 5.0835 14.3017C5.08685 11.3215 5.08768 8.34125 5.0835 5.36103C5.0835 5.21365 5.13123 5.17932 5.27107 5.18016C6.07244 5.18602 6.87381 5.18686 7.67601 5.18016C7.82339 5.17849 7.86191 5.22621 7.85856 5.36606C7.85019 5.72194 7.85605 6.07866 7.85605 6.43455L7.85521 6.43539Z" fill="#293242"/>
<path d="M3.26375 9.84117C3.26375 11.3158 3.26124 12.7896 3.2671 14.2642C3.2671 14.4283 3.22691 14.4777 3.05776 14.4761C2.22038 14.4668 1.38217 14.4694 0.544794 14.4752C0.410813 14.4761 0.369781 14.4426 0.370618 14.3036C0.374805 11.3183 0.373967 8.33307 0.370618 5.34866C0.370618 5.22557 0.400762 5.18119 0.531393 5.18202C1.38133 5.18788 2.23127 5.18956 3.08036 5.18118C3.24365 5.17951 3.26543 5.24314 3.26543 5.38298C3.26124 6.86933 3.26291 8.35567 3.26291 9.84201L3.26375 9.84117Z" fill="#293242"/>
<path d="M3.49412 2.22209C3.49495 3.14739 2.74383 3.90187 1.8202 3.90187C0.9083 3.90187 0.150472 3.14738 0.14796 2.23632C0.144611 1.3152 0.902437 0.556536 1.82355 0.557374C2.7388 0.558211 3.49328 1.31019 3.49412 2.22209Z" fill="#293242"/>
</svg>
