<svg width="15" height="15" viewBox="0 0 15 15" fill="none" xmlns="http://www.w3.org/2000/svg">
<path d="M13.649 1.01168C14.4274 1.79009 14.4274 3.05216 13.649 3.83058L10.3605 7.11905L13.8144 10.5729C14.698 11.4565 14.698 12.889 13.8144 13.7726C12.9308 14.6562 11.4983 14.6562 10.6147 13.7726L7.16086 10.3187L3.89778 13.5818C3.11936 14.3602 1.85729 14.3602 1.07888 13.5818C0.300459 12.8034 0.300458 11.5413 1.07888 10.7629L4.34196 7.49982L0.91348 4.07134C0.0299157 3.18778 0.0299169 1.75524 0.913481 0.871675C1.79705 -0.0118903 3.22959 -0.0118901 4.11315 0.871675L7.54163 4.30015L10.8301 1.01167C11.6085 0.233257 12.8706 0.233258 13.649 1.01168Z" fill="#EB644C"/>
</svg>
