<svg width="13" height="15" viewBox="0 0 13 15" fill="none" xmlns="http://www.w3.org/2000/svg">
<path d="M12.3112 4.04853C11.5529 4.04853 10.8533 3.78538 10.2915 3.34144C9.64721 2.83254 9.18428 2.08604 9.0208 1.22564C8.98032 1.01305 8.95852 0.793667 8.95644 0.568848H6.79046V6.7692L6.78786 10.1654C6.78786 11.0734 6.22346 11.8433 5.44109 12.114C5.21404 12.1926 4.96881 12.2298 4.71347 12.2152C4.38755 12.1964 4.08213 12.0934 3.81666 11.927C3.25175 11.5731 2.86874 10.9309 2.85836 10.1964C2.84201 9.04839 3.72792 8.11241 4.82298 8.11241C5.03914 8.11241 5.24673 8.14938 5.44109 8.21653V6.52182V5.9126C5.23609 5.88079 5.02746 5.86421 4.81649 5.86421C3.61789 5.86421 2.49688 6.38616 1.69557 7.32649C1.08991 8.03711 0.726622 8.94373 0.670572 9.89438C0.597135 11.1433 1.03334 12.3304 1.87929 13.2063C2.00359 13.3349 2.13411 13.4543 2.27061 13.5644C2.99589 14.1491 3.88258 14.4661 4.81649 14.4661C5.02746 14.4661 5.23609 14.4498 5.44109 14.418C6.31351 14.2826 7.11845 13.8642 7.75369 13.2063C8.53425 12.3981 8.96553 11.3251 8.9702 10.1831L8.95904 5.11146C9.33141 5.4124 9.73855 5.66141 10.1755 5.8547C10.8552 6.15509 11.5758 6.30733 12.3174 6.30705V4.65937V4.04798C12.3179 4.04853 12.3117 4.04853 12.3112 4.04853Z" fill="#293242"/>
</svg>
