<svg width="34" height="34" viewBox="0 0 34 34" fill="none" xmlns="http://www.w3.org/2000/svg">
<g clip-path="url(#clip0_1750_1179)">
<path d="M19.9738 13.4796V15.1846C19.9738 15.7261 20.0845 16.1804 20.303 16.5344C20.6044 17.0228 21.0991 17.3028 21.6609 17.3028C22.2112 17.3028 22.7581 17.0409 23.2862 16.525L29.0507 10.8937C30.3164 9.65729 30.3164 7.64547 29.0507 6.40904L23.2862 0.777716C22.7581 0.261567 22.2112 0 21.6609 0C20.8211 0 19.9738 0.655082 19.9738 2.11815V3.6666C11.7897 4.13876 5.01455 10.2743 4.00762 18.3074C3.95121 18.756 4.21235 19.1855 4.64271 19.3518C4.76454 19.3989 4.8914 19.4217 5.01667 19.4217C5.33395 19.4217 5.64169 19.2765 5.83768 19.015C8.53853 15.41 12.875 13.2577 17.4377 13.2577C18.2831 13.2577 19.1332 13.3322 19.9738 13.4796Z" fill="#E74529"/>
<path d="M29.357 14.4817C28.9267 14.3097 28.4356 14.4529 28.1621 14.8297C25.4615 18.5507 21.125 20.7724 16.5623 20.7724C15.7169 20.7724 14.8668 20.6955 14.0262 20.5433V18.7833C14.0262 17.2731 13.1787 16.5969 12.3391 16.5969C11.7888 16.5969 11.2419 16.8671 10.7136 17.3999L4.94902 23.2126C3.68361 24.4889 3.68361 26.5657 4.94929 27.8422L10.7136 33.6549C11.2419 34.1877 11.7888 34.4577 12.3391 34.4577C13.1787 34.4577 14.0262 33.7815 14.0262 32.2713V30.6729C22.2106 30.1855 28.9855 23.852 29.9924 15.5601C30.0488 15.0967 29.7877 14.6534 29.357 14.4817Z" fill="#E74529"/>
</g>
<defs>
<clipPath id="clip0_1750_1179">
<rect width="34" height="34" fill="white"/>
</clipPath>
</defs>
</svg>
