<svg width="34" height="34" viewBox="0 0 34 34" fill="none" xmlns="http://www.w3.org/2000/svg">
<g clip-path="url(#clip0_1750_1092)">
<g clip-path="url(#clip1_1750_1092)">
<path d="M22.95 13.7756H11.05C10.6994 14.7531 9.92379 15.5288 8.94629 15.8794V18.5781C9.92379 18.9288 10.6994 19.7044 11.05 20.6819H22.95C23.3007 19.7044 24.0763 18.9288 25.0538 18.5781V15.8794C24.0763 15.5288 23.3007 14.7531 22.95 13.7756ZM12.3994 18.3763C11.7619 18.3763 11.2413 17.8663 11.2413 17.2288C11.2413 16.5913 11.7619 16.0813 12.3994 16.0813C13.0263 16.0813 13.5469 16.5913 13.5469 17.2288C13.5469 17.8663 13.0263 18.3763 12.3994 18.3763ZM17 19.5344C15.725 19.5344 14.6944 18.5038 14.6944 17.2288C14.6944 15.9538 15.725 14.9231 17 14.9231C18.275 14.9231 19.3057 15.9538 19.3057 17.2288C19.3057 18.5038 18.275 19.5344 17 19.5344ZM21.6007 18.3763C20.9738 18.3763 20.4532 17.8663 20.4532 17.2288C20.4532 16.5913 20.9738 16.0813 21.6007 16.0813C22.2382 16.0813 22.7588 16.5913 22.7588 17.2288C22.7588 17.8663 22.2382 18.3763 21.6007 18.3763Z" fill="#E74529"/>
<path d="M27.3594 10.3225H6.64066C6.00316 10.3225 5.49316 10.8431 5.49316 11.47V22.9875C5.49316 23.6144 6.00316 24.135 6.64066 24.135H27.3594C27.9969 24.135 28.5069 23.6144 28.5069 22.9875V11.47C28.5069 10.8431 27.9969 10.3225 27.3594 10.3225ZM27.3594 19.5344C27.3594 20.1613 26.8494 20.6819 26.2119 20.6819C25.5744 20.6819 25.0538 21.2025 25.0538 21.8294C25.0538 22.4669 24.5438 22.9875 23.9063 22.9875H10.0938C9.45629 22.9875 8.94629 22.4669 8.94629 21.8294C8.94629 21.2025 8.42566 20.6819 7.78816 20.6819C7.16129 20.6819 6.64066 20.1613 6.64066 19.5344V14.9231C6.64066 14.2963 7.16129 13.7756 7.78816 13.7756C8.42566 13.7756 8.94629 13.255 8.94629 12.6281C8.94629 11.9906 9.45629 11.47 10.0938 11.47H23.9063C24.5438 11.47 25.0538 11.9906 25.0538 12.6281C25.0538 13.255 25.5744 13.7756 26.2119 13.7756C26.8494 13.7756 27.3594 14.2963 27.3594 14.9231V19.5344Z" fill="#E74529"/>
<path d="M22.95 13.7756H11.05C10.6994 14.7531 9.92379 15.5288 8.94629 15.8794V18.5781C9.92379 18.9288 10.6994 19.7044 11.05 20.6819H22.95C23.3007 19.7044 24.0763 18.9288 25.0538 18.5781V15.8794C24.0763 15.5288 23.3007 14.7531 22.95 13.7756ZM12.3994 18.3763C11.7619 18.3763 11.2413 17.8663 11.2413 17.2288C11.2413 16.5913 11.7619 16.0813 12.3994 16.0813C13.0263 16.0813 13.5469 16.5913 13.5469 17.2288C13.5469 17.8663 13.0263 18.3763 12.3994 18.3763ZM17 19.5344C15.725 19.5344 14.6944 18.5038 14.6944 17.2288C14.6944 15.9538 15.725 14.9231 17 14.9231C18.275 14.9231 19.3057 15.9538 19.3057 17.2288C19.3057 18.5038 18.275 19.5344 17 19.5344ZM21.6007 18.3763C20.9738 18.3763 20.4532 17.8663 20.4532 17.2288C20.4532 16.5913 20.9738 16.0813 21.6007 16.0813C22.2382 16.0813 22.7588 16.5913 22.7588 17.2288C22.7588 17.8663 22.2382 18.3763 21.6007 18.3763Z" fill="#E74529"/>
<path d="M27.3594 10.3225H6.64066C6.00316 10.3225 5.49316 10.8431 5.49316 11.47V22.9875C5.49316 23.6144 6.00316 24.135 6.64066 24.135H27.3594C27.9969 24.135 28.5069 23.6144 28.5069 22.9875V11.47C28.5069 10.8431 27.9969 10.3225 27.3594 10.3225ZM27.3594 19.5344C27.3594 20.1613 26.8494 20.6819 26.2119 20.6819C25.5744 20.6819 25.0538 21.2025 25.0538 21.8294C25.0538 22.4669 24.5438 22.9875 23.9063 22.9875H10.0938C9.45629 22.9875 8.94629 22.4669 8.94629 21.8294C8.94629 21.2025 8.42566 20.6819 7.78816 20.6819C7.16129 20.6819 6.64066 20.1613 6.64066 19.5344V14.9231C6.64066 14.2963 7.16129 13.7756 7.78816 13.7756C8.42566 13.7756 8.94629 13.255 8.94629 12.6281C8.94629 11.9906 9.45629 11.47 10.0938 11.47H23.9063C24.5438 11.47 25.0538 11.9906 25.0538 12.6281C25.0538 13.255 25.5744 13.7756 26.2119 13.7756C26.8494 13.7756 27.3594 14.2963 27.3594 14.9231V19.5344Z" fill="#E74529"/>
<path d="M24.5863 26.4406L28.1669 30.0213C25.1706 32.6456 21.2712 34.2288 17 34.2288C7.62875 34.2288 0 26.6 0 17.2288C0 12.9575 1.58312 9.05814 4.2075 6.06189L6.19438 8.04877C4.505 8.27189 3.1875 9.71689 3.1875 11.47V22.9875C3.1875 24.8894 4.73875 26.4406 6.64062 26.4406H24.5863Z" fill="#E74529"/>
<path d="M33.9999 17.2288C33.9999 21.5 32.4168 25.3994 29.7924 28.3956L27.8055 26.4088C29.4949 26.1856 30.8124 24.7406 30.8124 22.9875V11.47C30.8124 9.56813 29.2611 8.01688 27.3593 8.01688H9.41363L5.83301 4.43626C8.82926 1.81188 12.7286 0.22876 16.9999 0.22876C26.3711 0.22876 33.9999 7.85751 33.9999 17.2288Z" fill="#E74529"/>
</g>
</g>
<defs>
<clipPath id="clip0_1750_1092">
<rect width="34" height="34" fill="white"/>
</clipPath>
<clipPath id="clip1_1750_1092">
<rect width="34" height="34" fill="white" transform="translate(0 0.22876)"/>
</clipPath>
</defs>
</svg>
