<svg width="35" height="34" viewBox="0 0 35 34" fill="none" xmlns="http://www.w3.org/2000/svg">
<path fill-rule="evenodd" clip-rule="evenodd" d="M21.0314 31.9711C21.0314 30.7242 20.0508 29.7134 18.8411 29.7134H16.1589C15.578 29.7134 15.0209 29.9513 14.6101 30.3747C14.1993 30.7981 13.9686 31.3723 13.9686 31.9711C13.9686 33.2179 14.9492 34.2288 16.1589 34.2288H18.8411C20.0508 34.2288 21.0314 33.2179 21.0314 31.9711ZM4.60476 26.1494C4.97062 26.1783 5.41324 26.1948 5.85785 26.168C6.09472 27.4061 6.68315 28.5545 7.5615 29.4599C8.72758 30.6617 10.3091 31.3369 11.9581 31.3369H12.7939C12.757 31.5448 12.7381 31.7569 12.7381 31.9711C12.7381 32.1876 12.757 32.3996 12.7933 32.6052H11.9581C9.98272 32.6052 8.08821 31.7964 6.69143 30.3567C5.5771 29.208 4.85229 27.733 4.60476 26.1494ZM3.97886 24.7999C3.0074 24.6311 2.10342 24.1551 1.39774 23.4276C0.502783 22.5052 0 21.254 0 19.9494V16.9519C0 15.6473 0.502783 14.3961 1.39774 13.4737C2.29271 12.5512 3.50656 12.0329 4.77224 12.0329H5.0899C5.59768 5.42682 10.9599 0.22876 17.5 0.22876C24.0401 0.22876 29.4023 5.42682 29.9101 12.0329H30.2278C31.4934 12.0329 32.7073 12.5512 33.6023 13.4737C34.4972 14.3961 35 15.6473 35 16.9519V19.9494C35 21.254 34.4972 22.5052 33.6023 23.4276C32.7073 24.3502 31.4934 24.8684 30.2278 24.8684H28.8195C28.2354 24.8684 27.762 24.3803 27.762 23.7784V13.0608C27.762 7.21911 23.1675 2.48349 17.5 2.48349C11.8325 2.48349 7.23803 7.21911 7.23803 13.0608V23.7784C7.23803 24.2034 7.00198 24.5717 6.65759 24.7514C5.70958 25.0905 4.23938 24.8452 3.97886 24.7999Z" fill="#E74529"/>
</svg>
