<svg width="42" height="34" viewBox="0 0 42 34" fill="none" xmlns="http://www.w3.org/2000/svg">
<g clip-path="url(#clip0_1750_1136)">
<path d="M35.0001 13.5352V9.78784H31.2527C31.4843 11.7463 33.0415 13.3036 35.0001 13.5352Z" fill="#E74529"/>
<path d="M23.4034 18.6449C24.1855 18.6449 24.8195 18.0109 24.8195 17.2288C24.8195 16.4467 24.1855 15.8126 23.4034 15.8126C22.6213 15.8126 21.9873 16.4467 21.9873 17.2288C21.9873 18.0109 22.6213 18.6449 23.4034 18.6449Z" fill="#E74529"/>
<path d="M11.8069 20.9224V24.6697H15.5543C15.3227 22.7112 13.7654 21.1539 11.8069 20.9224Z" fill="#E74529"/>
<path d="M31.2527 24.6697H35.0001V20.9224C33.0415 21.1539 31.4843 22.7112 31.2527 24.6697Z" fill="#E74529"/>
<path d="M29.0736 9.78784H17.7334C17.4875 12.943 14.9621 15.4684 11.8069 15.7143V18.7432C14.9621 18.9891 17.4875 21.5145 17.7334 24.6696H29.0736C29.3195 21.5145 31.8449 18.9891 35.0001 18.7432V15.7143C31.8449 15.4684 29.3195 12.943 29.0736 9.78784ZM23.4035 20.8128C21.4272 20.8128 19.8194 19.205 19.8194 17.2287C19.8194 15.2525 21.4272 13.6447 23.4035 13.6447C25.3798 13.6447 26.9876 15.2525 26.9876 17.2287C26.9876 19.205 25.3798 20.8128 23.4035 20.8128Z" fill="#E74529"/>
<path d="M15.5543 9.78784H11.8069V13.5352C13.7654 13.3036 15.3228 11.7463 15.5543 9.78784Z" fill="#E74529"/>
<path d="M0.609375 11.7727H2.77734V13.9407H0.609375V11.7727Z" fill="#E74529"/>
<path d="M4.95435 11.7727H9.32172V13.9407H4.95435V11.7727Z" fill="#E74529"/>
<path d="M0.609375 20.4446H2.77734V22.6125H0.609375V20.4446Z" fill="#E74529"/>
<path d="M4.95435 20.4446H9.32172V22.6125H4.95435V20.4446Z" fill="#E74529"/>
<path d="M-2 16.1086H6.93247V18.2766H-2V16.1086Z" fill="#E74529"/>
</g>
<defs>
<clipPath id="clip0_1750_1136">
<rect width="42" height="34" fill="white"/>
</clipPath>
</defs>
</svg>
