<svg width="22" height="22" viewBox="0 0 22 22" fill="none" xmlns="http://www.w3.org/2000/svg">
<path d="M18.6999 3.29999H17.6V1.1C17.6 0.80826 17.4841 0.528471 17.2778 0.322182C17.0715 0.115892 16.7917 0 16.5 0C16.2082 0 15.9284 0.115892 15.7221 0.322182C15.5158 0.528471 15.4 0.80826 15.4 1.1V3.29999H6.59998V1.1C6.59998 0.80826 6.48409 0.528471 6.2778 0.322182C6.07151 0.115892 5.79172 0 5.49998 0C5.20825 0 4.92846 0.115892 4.72217 0.322182C4.51588 0.528471 4.39999 0.80826 4.39999 1.1V3.29999H3.29999C2.42478 3.29999 1.58541 3.64767 0.966545 4.26654C0.347677 4.8854 0 5.72477 0 6.59998V7.69998H21.9999V6.59998C21.9999 5.72477 21.6523 4.8854 21.0334 4.26654C20.4145 3.64767 19.5752 3.29999 18.6999 3.29999Z" fill="#9B9B9B"/>
<path d="M0 18.7004C0 19.5756 0.347677 20.4149 0.966545 21.0338C1.58541 21.6527 2.42478 22.0004 3.29999 22.0004H18.6999C19.5752 22.0004 20.4145 21.6527 21.0334 21.0338C21.6523 20.4149 21.9999 19.5756 21.9999 18.7004V9.90039H0V18.7004Z" fill="#9B9B9B"/>
</svg>
