<svg width="33" height="34" viewBox="0 0 33 34" fill="none" xmlns="http://www.w3.org/2000/svg">
<path d="M30.5795 9.2072L15.9527 0.102C15.7351 -0.034 15.4563 -0.034 15.2387 0.102L0.611898 9.2072C0.414698 9.3296 0.292297 9.5472 0.292297 9.7852V12.4236C0.292297 12.7976 0.598297 13.1036 0.972297 13.1036H30.2191C30.5931 13.1036 30.8991 12.7976 30.8991 12.4236V9.7852C30.8991 9.5472 30.7767 9.3296 30.5795 9.2072ZM15.5991 10.5876C14.0419 10.5876 12.7771 9.3228 12.7771 7.7656C12.7771 6.2084 14.0419 4.9436 15.5991 4.9436C17.1563 4.9436 18.4211 6.2084 18.4211 7.7656C18.4211 9.3228 17.1563 10.5876 15.5991 10.5876Z" fill="#E74529"/>
<path d="M22.7595 14.4636H27.7915V24.8336H22.7595V14.4636Z" fill="#E74529"/>
<path d="M13.0831 14.4636H18.1151V24.8336H13.0831V14.4636Z" fill="#E74529"/>
<path d="M3.3999 14.4636H8.4319V24.8336H3.3999V14.4636Z" fill="#E74529"/>
<path d="M32.5991 30.0832V33.32C32.5991 33.694 32.2931 34 31.9191 34H-0.720879C-1.10168 34 -1.40088 33.694 -1.40088 33.32V30.0832C-1.40088 29.7092 -1.10168 29.4032 -0.720879 29.4032H0.911121V26.8736C0.911121 26.4996 1.21712 26.1936 1.59112 26.1936H29.6071C29.9811 26.1936 30.2871 26.4996 30.2871 26.8736V29.4032H31.9191C32.2931 29.4032 32.5991 29.7092 32.5991 30.0832Z" fill="#E74529"/>
</svg>
