<svg width="29" height="34" viewBox="0 0 29 34" fill="none" xmlns="http://www.w3.org/2000/svg">
<path d="M14.6994 30.1929C13.3801 30.1929 12.0978 30.0321 10.87 29.7313V34.0001H18.5288V29.7312C17.3009 30.0321 16.0187 30.1929 14.6994 30.1929Z" fill="#E74529"/>
<path d="M0.599121 14.1002C0.599121 21.8751 6.92445 28.2005 14.6994 28.2005C22.4743 28.2005 28.7997 21.8751 28.7997 14.1002C28.7997 6.32533 22.4743 0 14.6994 0C6.92445 0 0.599121 6.32533 0.599121 14.1002ZM14.6994 3.41992C20.5885 3.41992 25.3797 8.21107 25.3797 14.1002C25.3797 19.9894 20.5885 24.7806 14.6994 24.7806C8.81019 24.7806 4.01904 19.9894 4.01904 14.1002C4.01904 8.21113 8.81019 3.41992 14.6994 3.41992Z" fill="#E74529"/>
<path d="M14.6994 22.7886C16.7366 22.7886 18.612 22.0835 20.0951 20.9049L7.89491 8.70459C6.71633 10.1878 6.01123 12.0632 6.01123 14.1004C6.01123 18.891 9.90868 22.7886 14.6994 22.7886Z" fill="#E74529"/>
<path d="M21.5038 19.496C22.6824 18.0128 23.3875 16.1374 23.3875 14.1002C23.3875 9.30962 19.49 5.41211 14.6994 5.41211C12.6622 5.41211 10.7867 6.11721 9.30359 7.29579L21.5038 19.496Z" fill="#E74529"/>
</svg>
