<svg width="31" height="34" viewBox="0 0 31 34" fill="none" xmlns="http://www.w3.org/2000/svg">
<path d="M25.4993 0H5.09986C3.7473 0 2.45013 0.537305 1.49372 1.49371C0.537313 2.45012 8.02338e-06 3.74729 8.02338e-06 5.09985V30.2591C-0.00124025 30.8338 0.143184 31.3994 0.41979 31.9031C0.696396 32.4068 1.09616 32.8321 1.58173 33.1394C2.06731 33.4467 2.62285 33.6259 3.19647 33.6603C3.77009 33.6947 4.34306 33.5831 4.86187 33.336C5.26986 33.132 5.62685 32.9111 6.00084 32.6901C6.72012 32.15 7.6006 31.8685 8.49976 31.8911C9.40415 31.8686 10.29 32.1499 11.0157 32.6901C12.271 33.565 13.7697 34.0229 15.2996 33.999C16.8297 34.0241 18.3287 33.566 19.5834 32.6901C20.3086 32.1488 21.1948 31.8673 22.0994 31.8911C22.9989 31.8658 23.8803 32.1476 24.5983 32.6901C24.9665 32.9198 25.3467 33.1298 25.7373 33.319C26.2548 33.5655 26.8262 33.6772 27.3984 33.6436C27.9707 33.61 28.5251 33.4323 29.0102 33.127C29.4953 32.8216 29.8954 32.3986 30.1732 31.8972C30.451 31.3958 30.5975 30.8323 30.5991 30.2591V5.09985C30.5991 3.74729 30.0618 2.45012 29.1054 1.49371C28.149 0.537305 26.8518 0 25.4993 0ZM15.2996 23.7993H8.49976C8.04891 23.7993 7.61652 23.6202 7.29772 23.3014C6.97892 22.9826 6.79981 22.5502 6.79981 22.0994C6.79981 21.6485 6.97892 21.2161 7.29772 20.8973C7.61652 20.5785 8.04891 20.3994 8.49976 20.3994H15.2996C15.7504 20.3994 16.1828 20.5785 16.5016 20.8973C16.8204 21.2161 16.9995 21.6485 16.9995 22.0994C16.9995 22.5502 16.8204 22.9826 16.5016 23.3014C16.1828 23.6202 15.7504 23.7993 15.2996 23.7993ZM22.0994 16.9995H8.49976C8.04891 16.9995 7.61652 16.8204 7.29772 16.5016C6.97892 16.1828 6.79981 15.7504 6.79981 15.2996C6.79981 14.8487 6.97892 14.4163 7.29772 14.0975C7.61652 13.7787 8.04891 13.5996 8.49976 13.5996H22.0994C22.5502 13.5996 22.9826 13.7787 23.3014 14.0975C23.6202 14.4163 23.7993 14.8487 23.7993 15.2996C23.7993 15.7504 23.6202 16.1828 23.3014 16.5016C22.9826 16.8204 22.5502 16.9995 22.0994 16.9995ZM22.0994 10.1997H8.49976C8.04891 10.1997 7.61652 10.0206 7.29772 9.7018C6.97892 9.383 6.79981 8.95061 6.79981 8.49976C6.79981 8.0489 6.97892 7.61651 7.29772 7.29771C7.61652 6.97891 8.04891 6.7998 8.49976 6.7998H22.0994C22.5502 6.7998 22.9826 6.97891 23.3014 7.29771C23.6202 7.61651 23.7993 8.0489 23.7993 8.49976C23.7993 8.95061 23.6202 9.383 23.3014 9.7018C22.9826 10.0206 22.5502 10.1997 22.0994 10.1997Z" fill="#E74529"/>
</svg>
